<svg width="507" height="377" viewBox="0 0 507 377" fill="none" xmlns="http://www.w3.org/2000/svg">
<g opacity="0.4">
<path d="M493 330H479C477.895 330 477 330.895 477 332V346C477 347.105 477.895 348 479 348H493C494.105 348 495 347.105 495 346V332C495 330.895 494.105 330 493 330Z" stroke="#E5F7F6" stroke-width="2" stroke-linecap="round" stroke-linejoin="round"/>
<path d="M484 334H481V343H484V334Z" stroke="#E5F7F6" stroke-width="2" stroke-linecap="round" stroke-linejoin="round"/>
<path d="M491 334H488V339H491V334Z" stroke="#E5F7F6" stroke-width="2" stroke-linecap="round" stroke-linejoin="round"/>
<path d="M429.458 75.125H405.542C403.655 75.125 402.125 76.6547 402.125 78.5417V102.458C402.125 104.345 403.655 105.875 405.542 105.875H429.458C431.345 105.875 432.875 104.345 432.875 102.458V78.5417C432.875 76.6547 431.345 75.125 429.458 75.125Z" stroke="#E5F7F6" stroke-width="2" stroke-linecap="round" stroke-linejoin="round"/>
<path d="M414.083 81.9583H408.958V97.3333H414.083V81.9583Z" stroke="#E5F7F6" stroke-width="2" stroke-linecap="round" stroke-linejoin="round"/>
<path d="M426.042 81.9583H420.917V90.5H426.042V81.9583Z" stroke="#E5F7F6" stroke-width="2" stroke-linecap="round" stroke-linejoin="round"/>
<path d="M19 240H5C3.89543 240 3 240.895 3 242V256C3 257.105 3.89543 258 5 258H19C20.1046 258 21 257.105 21 256V242C21 240.895 20.1046 240 19 240Z" stroke="#E5F7F6" stroke-width="2" stroke-linecap="round" stroke-linejoin="round"/>
<path d="M10 244H7V253H10V244Z" stroke="#E5F7F6" stroke-width="2" stroke-linecap="round" stroke-linejoin="round"/>
<path d="M17 244H14V249H17V244Z" stroke="#E5F7F6" stroke-width="2" stroke-linecap="round" stroke-linejoin="round"/>
<path d="M452 348.865H438C436.895 348.865 436 349.911 436 351.201V367.553C436 368.843 436.895 369.889 438 369.889H452C453.105 369.889 454 368.843 454 367.553V351.201C454 349.911 453.105 348.865 452 348.865Z" stroke="#E5F7F6" stroke-width="2" stroke-linecap="round" stroke-linejoin="round"/>
<path d="M449 346.529V351.201" stroke="#E5F7F6" stroke-width="2" stroke-linecap="round" stroke-linejoin="round"/>
<path d="M441 346.529V351.201" stroke="#E5F7F6" stroke-width="2" stroke-linecap="round" stroke-linejoin="round"/>
<path d="M436 355.873H454" stroke="#E5F7F6" stroke-width="2" stroke-linecap="round" stroke-linejoin="round"/>
<path d="M272 135.083H258C256.895 135.083 256 136.128 256 137.419V153.771C256 155.061 256.895 156.107 258 156.107H272C273.105 156.107 274 155.061 274 153.771V137.419C274 136.128 273.105 135.083 272 135.083Z" stroke="#E5F7F6" stroke-width="2" stroke-linecap="round" stroke-linejoin="round"/>
<path d="M269 132.746V137.418" stroke="#E5F7F6" stroke-width="2" stroke-linecap="round" stroke-linejoin="round"/>
<path d="M261 132.746V137.418" stroke="#E5F7F6" stroke-width="2" stroke-linecap="round" stroke-linejoin="round"/>
<path d="M256 142.091H274" stroke="#E5F7F6" stroke-width="2" stroke-linecap="round" stroke-linejoin="round"/>
<path d="M114.167 232.844H83.8333C81.4401 232.844 79.5 235.11 79.5 237.905V273.334C79.5 276.13 81.4401 278.396 83.8333 278.396H114.167C116.56 278.396 118.5 276.13 118.5 273.334V237.905C118.5 235.11 116.56 232.844 114.167 232.844Z" stroke="#E5F7F6" stroke-width="2" stroke-linecap="round" stroke-linejoin="round"/>
<path d="M107.667 227.781V237.904" stroke="#E5F7F6" stroke-width="2" stroke-linecap="round" stroke-linejoin="round"/>
<path d="M90.3335 227.781V237.904" stroke="#E5F7F6" stroke-width="2" stroke-linecap="round" stroke-linejoin="round"/>
<path d="M79.5 248.028H118.5" stroke="#E5F7F6" stroke-width="2" stroke-linecap="round" stroke-linejoin="round"/>
<path d="M385 26L375 31L385 36L395 31L385 26Z" stroke="#E5F7F6" stroke-width="2" stroke-linecap="round" stroke-linejoin="round"/>
<path d="M375 41L385 46L395 41" stroke="#E5F7F6" stroke-width="2" stroke-linecap="round" stroke-linejoin="round"/>
<path d="M375 36L385 41L395 36" stroke="#E5F7F6" stroke-width="2" stroke-linecap="round" stroke-linejoin="round"/>
<path d="M410.5 290.417L388.417 301.458L410.5 312.5L432.583 301.458L410.5 290.417Z" stroke="#E5F7F6" stroke-width="2" stroke-linecap="round" stroke-linejoin="round"/>
<path d="M388.417 323.542L410.5 334.583L432.583 323.542" stroke="#E5F7F6" stroke-width="2" stroke-linecap="round" stroke-linejoin="round"/>
<path d="M388.417 312.5L410.5 323.542L432.583 312.5" stroke="#E5F7F6" stroke-width="2" stroke-linecap="round" stroke-linejoin="round"/>
<path d="M347 94L342.5 100V121C342.5 121.796 342.816 122.559 343.379 123.121C343.941 123.684 344.704 124 345.5 124H366.5C367.296 124 368.059 123.684 368.621 123.121C369.184 122.559 369.5 121.796 369.5 121V100L365 94H347Z" stroke="#E5F7F6" stroke-width="2" stroke-linecap="round" stroke-linejoin="round"/>
<path d="M342.5 100H369.5" stroke="#E5F7F6" stroke-width="2" stroke-linecap="round" stroke-linejoin="round"/>
<path d="M362 106C362 107.591 361.368 109.117 360.243 110.243C359.117 111.368 357.591 112 356 112C354.409 112 352.883 111.368 351.757 110.243C350.632 109.117 350 107.591 350 106" stroke="#E5F7F6" stroke-width="2" stroke-linecap="round" stroke-linejoin="round"/>
<path d="M21.5 131.167L16.75 137.5V159.667C16.75 160.507 17.0836 161.312 17.6775 161.906C18.2714 162.5 19.0768 162.833 19.9167 162.833H42.0833C42.9232 162.833 43.7286 162.5 44.3225 161.906C44.9164 161.312 45.25 160.507 45.25 159.667V137.5L40.5 131.167H21.5Z" stroke="#E5F7F6" stroke-width="2" stroke-linecap="round" stroke-linejoin="round"/>
<path d="M16.75 137.5H45.25" stroke="#E5F7F6" stroke-width="2" stroke-linecap="round" stroke-linejoin="round"/>
<path d="M37.3332 143.833C37.3332 145.513 36.6659 147.124 35.4782 148.312C34.2905 149.499 32.6795 150.167 30.9998 150.167C29.3201 150.167 27.7092 149.499 26.5215 148.312C25.3338 147.124 24.6665 145.513 24.6665 143.833" stroke="#E5F7F6" stroke-width="2" stroke-linecap="round" stroke-linejoin="round"/>
<path d="M331 22H328C327.47 22 326.961 21.7893 326.586 21.4142C326.211 21.0391 326 20.5304 326 20V13C326 12.4696 326.211 11.9609 326.586 11.5858C326.961 11.2107 327.47 11 328 11H331M338 9V5C338 4.20435 337.684 3.44129 337.121 2.87868C336.559 2.31607 335.796 2 335 2L331 11V22H342.28C342.762 22.0055 343.23 21.8364 343.598 21.524C343.965 21.2116 344.208 20.7769 344.28 20.3L345.66 11.3C345.704 11.0134 345.684 10.7207 345.603 10.4423C345.523 10.1638 345.382 9.90629 345.192 9.68751C345.002 9.46873 344.766 9.29393 344.502 9.17522C344.237 9.0565 343.95 8.99672 343.66 9H338Z" stroke="#E5F7F6" stroke-width="2" stroke-linecap="round" stroke-linejoin="round"/>
<path d="M335 231H332C331.47 231 330.961 230.789 330.586 230.414C330.211 230.039 330 229.53 330 229V222C330 221.47 330.211 220.961 330.586 220.586C330.961 220.211 331.47 220 332 220H335M342 218V214C342 213.204 341.684 212.441 341.121 211.879C340.559 211.316 339.796 211 339 211L335 220V231H346.28C346.762 231.005 347.23 230.836 347.598 230.524C347.965 230.212 348.208 229.777 348.28 229.3L349.66 220.3C349.704 220.013 349.684 219.721 349.603 219.442C349.523 219.164 349.382 218.906 349.192 218.688C349.002 218.469 348.766 218.294 348.502 218.175C348.237 218.057 347.95 217.997 347.66 218H342Z" stroke="#E5F7F6" stroke-width="2" stroke-linecap="round" stroke-linejoin="round"/>
<path d="M285.833 51.25H271.25V65.8333H285.833V51.25Z" stroke="#E5F7F6" stroke-width="2" stroke-linecap="round" stroke-linejoin="round"/>
<path d="M308.75 51.25H294.167V65.8333H308.75V51.25Z" stroke="#E5F7F6" stroke-width="2" stroke-linecap="round" stroke-linejoin="round"/>
<path d="M308.75 74.1667H294.167V88.75H308.75V74.1667Z" stroke="#E5F7F6" stroke-width="2" stroke-linecap="round" stroke-linejoin="round"/>
<path d="M285.833 74.1667H271.25V88.75H285.833V74.1667Z" stroke="#E5F7F6" stroke-width="2" stroke-linecap="round" stroke-linejoin="round"/>
<path d="M443.417 355.125H436.125V362.417H443.417V355.125Z" stroke="#E5F7F6" stroke-width="2" stroke-linecap="round" stroke-linejoin="round"/>
<path d="M454.875 355.125H447.583V362.417H454.875V355.125Z" stroke="#E5F7F6" stroke-width="2" stroke-linecap="round" stroke-linejoin="round"/>
<path d="M454.875 366.583H447.583V373.875H454.875V366.583Z" stroke="#E5F7F6" stroke-width="2" stroke-linecap="round" stroke-linejoin="round"/>
<path d="M443.417 366.583H436.125V373.875H443.417V366.583Z" stroke="#E5F7F6" stroke-width="2" stroke-linecap="round" stroke-linejoin="round"/>
<path d="M495 271V293" stroke="#E5F7F6" stroke-width="2" stroke-linecap="round" stroke-linejoin="round"/>
<path d="M500 275H492.5C491.572 275 490.682 275.369 490.025 276.025C489.369 276.682 489 277.572 489 278.5C489 279.428 489.369 280.318 490.025 280.975C490.682 281.631 491.572 282 492.5 282H497.5C498.428 282 499.318 282.369 499.975 283.025C500.631 283.682 501 284.572 501 285.5C501 286.428 500.631 287.318 499.975 287.975C499.318 288.631 498.428 289 497.5 289H489" stroke="#E5F7F6" stroke-width="2" stroke-linecap="round" stroke-linejoin="round"/>
<path d="M86 74.5833V109.417" stroke="#E5F7F6" stroke-width="2" stroke-linecap="round" stroke-linejoin="round"/>
<path d="M93.9167 80.9167H82.0417C80.5719 80.9167 79.1624 81.5005 78.1231 82.5398C77.0839 83.5791 76.5 84.9886 76.5 86.4583C76.5 87.9281 77.0839 89.3376 78.1231 90.3769C79.1624 91.4162 80.5719 92 82.0417 92H89.9583C91.4281 92 92.8376 92.5839 93.8769 93.6231C94.9161 94.6624 95.5 96.0719 95.5 97.5417C95.5 99.0114 94.9161 100.421 93.8769 101.46C92.8376 102.499 91.4281 103.083 89.9583 103.083H76.5" stroke="#E5F7F6" stroke-width="2" stroke-linecap="round" stroke-linejoin="round"/>
<path d="M351.875 180.625C351.875 181.531 351.515 182.4 350.874 183.041C350.234 183.682 349.364 184.042 348.458 184.042H327.958L321.125 190.875V163.542C321.125 162.636 321.485 161.766 322.126 161.126C322.766 160.485 323.636 160.125 324.542 160.125H348.458C349.364 160.125 350.234 160.485 350.874 161.126C351.515 161.766 351.875 162.636 351.875 163.542V180.625Z" stroke="#E5F7F6" stroke-width="2" stroke-linecap="round" stroke-linejoin="round"/>
<path d="M486 87L475 98" stroke="#E5F7F6" stroke-width="2" stroke-linecap="round" stroke-linejoin="round"/>
<path d="M486 87L479 107L475 98L466 94L486 87Z" stroke="#E5F7F6" stroke-width="2" stroke-linecap="round" stroke-linejoin="round"/>
<path d="M292.667 190.333L274.333 208.667" stroke="#E5F7F6" stroke-width="2" stroke-linecap="round" stroke-linejoin="round"/>
<path d="M292.667 190.333L281 223.667L274.333 208.667L259.333 202L292.667 190.333Z" stroke="#E5F7F6" stroke-width="2" stroke-linecap="round" stroke-linejoin="round"/>
</g>
</svg>
