<svg width="390" height="249" viewBox="0 0 390 249" fill="none" xmlns="http://www.w3.org/2000/svg">
<path d="M8.56399 66.607C6.96721 54.4637 17.5808 42.1416 29.8414 41.9295C35.7093 41.829 41.6777 44.079 47.339 42.5269C59.5103 39.177 61.6374 21.6626 72.5637 15.3369C80.1177 10.9653 90.3795 13.4889 96.4651 19.742C102.551 25.9952 104.924 35.1348 104.711 43.8557C104.153 65.898 86.957 86.4216 65.3447 90.7821C43.7323 95.1425 11.5733 87.555 8.51375 66.1325" fill="#FFF5E6"/>
<path d="M150.584 20.7725C151.981 12.093 146.077 3.92494 137.397 2.52851C128.718 1.13207 120.55 7.03609 119.153 15.7155C117.757 24.3949 123.661 32.563 132.34 33.9594C141.02 35.3559 149.188 29.4519 150.584 20.7725Z" fill="#FFF5E6"/>
<path d="M370.871 77.1312C370.52 77.0423 370.164 76.977 369.805 76.9358C369.131 76.8568 368.449 76.87 367.778 76.9749C360.442 77.4886 353.563 83.5351 352.737 90.9328C351.788 99.5029 359.141 108.079 367.756 108.453C376.371 108.827 384.438 100.921 384.237 92.3007C384.07 84.9923 377.995 78.4712 370.871 77.1312Z" fill="#FFF5E6"/>
<path d="M389.597 247.367C389.597 247.451 304.342 247.512 199.212 247.512C94.0809 247.512 8.82617 247.451 8.82617 247.367C8.82617 247.283 94.0641 247.222 199.24 247.222C304.415 247.222 389.597 247.289 389.597 247.367Z" fill="#263238"/>
<path d="M161.117 223.99C161.71 224.129 162.269 224.386 162.76 224.746C163.251 225.105 163.665 225.561 163.976 226.084C164.595 227.134 164.963 228.313 165.053 229.529C165.299 231.868 164.495 234.459 163.512 236.586C161.223 235.33 160.162 232.505 159.677 231.036C158.951 228.714 159.046 224.074 161.117 223.99Z" fill="#07A39D"/>
<path d="M166.573 239.863C166.299 239.239 166.194 238.554 166.27 237.877C166.345 237.199 166.598 236.554 167.003 236.006C167.418 235.466 167.937 235.014 168.528 234.677C169.119 234.34 169.772 234.123 170.448 234.04C170.754 233.968 171.072 233.964 171.38 234.029C171.688 234.094 171.977 234.225 172.229 234.414C172.43 234.628 172.572 234.892 172.64 235.178C172.707 235.464 172.698 235.763 172.614 236.045C172.429 236.605 172.102 237.107 171.665 237.502C170.23 238.909 168.583 240.014 166.573 239.863Z" fill="#07A39D"/>
<path d="M165.651 247.395C165.622 247.237 165.609 247.076 165.612 246.915C165.612 246.569 165.584 246.128 165.568 245.597C165.473 244.138 165.614 242.673 165.986 241.259C166.384 239.84 167.155 238.554 168.22 237.535C168.543 237.234 168.901 236.971 169.286 236.754C169.39 236.692 169.498 236.638 169.61 236.592C169.682 236.558 169.722 236.541 169.727 236.547C169.216 236.858 168.737 237.218 168.298 237.625C167.284 238.653 166.547 239.92 166.154 241.31C165.787 242.708 165.632 244.153 165.696 245.597C165.696 246.156 165.696 246.602 165.696 246.915C165.697 247.076 165.682 247.237 165.651 247.395Z" fill="#263238"/>
<path d="M161.37 227.541C161.399 227.604 161.422 227.669 161.437 227.737C161.481 227.888 161.532 228.083 161.599 228.295C161.738 228.803 161.934 229.535 162.157 230.445C162.62 232.259 163.223 234.772 163.832 237.569C164.44 240.366 164.921 242.901 165.25 244.749C165.412 245.67 165.54 246.424 165.618 246.932C165.658 247.177 165.685 247.378 165.708 247.529C165.713 247.6 165.713 247.671 165.708 247.741C165.681 247.675 165.662 247.606 165.652 247.535C165.618 247.384 165.579 247.188 165.529 246.943C165.429 246.412 165.283 245.67 165.11 244.771C164.753 242.934 164.245 240.394 163.648 237.602C163.05 234.811 162.458 232.293 162.028 230.473C161.816 229.574 161.643 228.842 161.52 228.312L161.386 227.754C161.373 227.684 161.367 227.613 161.37 227.541Z" fill="#263238"/>
<path d="M163.558 241.979C163.021 240.648 162.175 239.463 161.09 238.523C160.004 237.583 158.711 236.916 157.316 236.575C156.607 236.407 155.725 236.391 155.3 236.988C154.876 237.585 155.189 238.412 155.591 239.02C156.458 240.274 157.676 241.243 159.093 241.805C160.51 242.368 162.061 242.498 163.552 242.18" fill="#07A39D"/>
<path d="M158.104 238.674C158.255 238.686 158.405 238.714 158.55 238.758C158.724 238.797 158.895 238.846 159.064 238.903C159.265 238.976 159.494 239.031 159.734 239.143C160.001 239.248 160.262 239.367 160.516 239.5C160.81 239.648 161.095 239.812 161.37 239.992C162.004 240.406 162.588 240.891 163.112 241.438C163.628 241.992 164.077 242.605 164.452 243.263C164.612 243.551 164.756 243.847 164.882 244.151C164.996 244.414 165.097 244.682 165.183 244.955C165.255 245.181 165.314 245.41 165.362 245.642C165.409 245.814 165.443 245.989 165.462 246.167C165.494 246.315 165.511 246.467 165.513 246.619C165.473 246.619 165.401 245.977 165.066 244.994C164.976 244.726 164.872 244.463 164.753 244.207C164.624 243.91 164.477 243.621 164.312 243.342C163.94 242.698 163.496 242.099 162.989 241.555C162.483 241.02 161.922 240.541 161.314 240.126C161.044 239.944 160.764 239.776 160.476 239.623C160.214 239.472 159.952 239.361 159.717 239.255C158.729 238.842 158.092 238.708 158.104 238.674Z" fill="#263238"/>
<path d="M294.003 173.681H46.0723V198.459H294.003V173.681Z" fill="#989898"/>
<g opacity="0.4">
<path opacity="0.4" d="M294.003 173.681H46.0723V198.459H294.003V173.681Z" fill="black"/>
</g>
<path d="M240.287 201.585H167.104V224.532H240.287V201.585Z" fill="#455A64"/>
<path d="M115.963 191.206V221.54H140.953L150.969 207.023H333.432V191.206H115.963Z" fill="#263238"/>
<path d="M114.405 95.1536C114.378 94.6658 114.16 94.2083 113.799 93.8794C113.437 93.5505 112.962 93.3765 112.473 93.3949C102.597 93.8024 55.7095 95.952 46.0674 100.586C38.6864 104.137 30.602 117.391 24.9016 126.319C20.8148 132.717 11.7868 146.921 9.9611 154.184C8.41457 160.326 7.48218 173.1 7.58826 179.437L10.1677 212.969H52.661L56.9154 201.892C58.273 198.364 60.6681 195.33 63.7847 193.19C66.9014 191.05 70.5934 189.905 74.3739 189.905H116.599V134.258L114.405 95.1536Z" fill="#6D6D6D"/>
<path d="M41.0307 104.299C35.1796 109.882 29.3061 119.373 24.901 126.319C21.1156 132.242 13.0982 144.855 10.4797 152.459C10.4295 152.598 10.3904 152.732 10.3457 152.872C11.641 152.515 13.6342 151.783 14.2539 150.555C15.1863 148.696 16.3811 142.325 31.1541 118.279C35.643 110.948 40.0202 106.66 41.0307 104.299Z" fill="#455A64"/>
<path d="M92.5748 101.814C81.71 102.434 58.1547 104.048 50.6286 106.605C40.8246 109.955 29.8202 135.911 29.3009 137.05L21.8865 156.032C21.845 156.156 21.8335 156.289 21.853 156.418C21.8725 156.547 21.9225 156.67 21.9988 156.777C22.0752 156.883 22.1756 156.97 22.292 157.029C22.4084 157.089 22.5373 157.121 22.6682 157.121H41.8351C42.5611 157.121 43.2813 156.993 43.9623 156.741L94.3726 137.948C95.4856 137.533 96.4452 136.788 97.1227 135.812C97.8003 134.836 98.1634 133.676 98.1635 132.488V107.102C98.1639 106.381 98.0173 105.669 97.7327 105.007C97.448 104.345 97.0313 103.749 96.5082 103.254C95.985 102.759 95.3663 102.376 94.69 102.129C94.0136 101.881 93.2939 101.774 92.5748 101.814Z" fill="#263238"/>
<path d="M24.0254 155.256C24.0254 155.256 31.1272 139.327 33.5167 134.107C37.1235 126.224 45.5484 110.1 51.2377 108.363C56.4691 106.794 71.5101 104.885 92.6814 103.673H92.8824C93.7916 103.676 94.6627 104.039 95.3051 104.683C95.9475 105.326 96.309 106.198 96.3105 107.107V133.069C96.3084 133.708 96.1119 134.332 95.7469 134.858C95.382 135.384 94.8658 135.786 94.267 136.011L57.0218 140.606C55.5288 140.79 54.0938 141.297 52.8163 142.091C51.5389 142.886 50.4496 143.949 49.6241 145.206L43.17 155.05C42.7912 155.19 42.3904 155.262 41.9864 155.262L24.0254 155.256Z" fill="#455A64"/>
<path d="M55.6704 140.891L43.0078 154.994L50.0147 108.168L51.7678 107.565L48.3174 142.253C48.3011 142.427 48.3298 142.602 48.4008 142.762C48.4718 142.922 48.5826 143.061 48.7227 143.166C48.8628 143.271 49.0274 143.338 49.2009 143.361C49.3743 143.384 49.5507 143.362 49.7132 143.297L55.6704 140.891Z" fill="#263238"/>
<path d="M6.75606 182.692C6.7114 182.083 6.91797 181.575 7.23063 181.575L14.0197 180.95C14.5781 180.894 15.0973 181.949 15.1643 183.183L15.4714 188.392C15.5216 189.23 15.2704 189.939 14.913 190L7.98994 191.195C7.67728 191.251 7.37579 190.787 7.33113 190.173L6.75606 182.692Z" fill="#EBEBEB"/>
<path d="M55.6696 207.028H6.75V226.642H55.6696V207.028Z" fill="#263238"/>
<path d="M88.3262 247.128C103.098 246.561 114.612 234.126 114.045 219.355C113.477 204.583 101.043 193.069 86.2713 193.636C71.4999 194.204 59.9854 206.638 60.5529 221.41C61.1203 236.181 73.5549 247.696 88.3262 247.128Z" fill="#263238"/>
<path d="M60.5551 219.92C60.558 219.945 60.558 219.969 60.5551 219.993C60.4614 227.086 63.187 233.925 68.1329 239.01C73.0788 244.094 79.8407 247.007 86.9331 247.109C94.0256 247.211 100.868 244.494 105.959 239.554C111.049 234.614 113.97 227.856 114.081 220.763C114.081 220.763 114.081 220.719 114.081 220.696L60.5551 219.92Z" fill="#263238"/>
<path d="M68.5216 220.104C68.4667 223.821 69.5154 227.471 71.5349 230.591C73.5544 233.712 76.454 236.164 79.867 237.637C83.28 239.109 87.0531 239.537 90.7091 238.865C94.3651 238.193 97.7397 236.452 100.406 233.862C103.073 231.272 104.911 227.95 105.689 224.315C106.467 220.68 106.15 216.896 104.777 213.442C103.404 209.987 101.038 207.017 97.9774 204.908C94.9167 202.798 91.2993 201.644 87.5825 201.591C82.6 201.519 77.7931 203.429 74.2187 206.901C70.6443 210.373 68.5951 215.122 68.5216 220.104Z" fill="#FAFAFA"/>
<path d="M87.5843 201.591C82.6019 201.519 77.795 203.429 74.2206 206.901C70.6462 210.373 68.5969 215.122 68.5234 220.104L106.104 220.663C106.177 215.678 104.267 210.868 100.794 207.291C97.3207 203.715 92.5692 201.664 87.5843 201.591Z" fill="#E0E0E0"/>
<path d="M75.8703 220.211C75.8375 222.474 76.4766 224.697 77.7069 226.597C78.9372 228.497 80.7034 229.99 82.7821 230.887C84.8609 231.783 87.1588 232.043 89.3853 231.633C91.6118 231.224 93.6668 230.163 95.2905 228.586C96.9141 227.008 98.0334 224.984 98.5069 222.771C98.9804 220.557 98.7868 218.252 97.9505 216.149C97.1142 214.045 95.6728 212.237 93.8087 210.952C91.9445 209.668 89.7413 208.965 87.4777 208.933C84.4431 208.889 81.5155 210.053 79.3388 212.168C77.162 214.283 75.9145 217.176 75.8703 220.211Z" fill="#263238"/>
<path d="M35.3981 118.815H33.2151C30.7545 118.815 28.7598 120.81 28.7598 123.27V140.986C28.7598 143.446 30.7545 145.441 33.2151 145.441H35.3981C37.8588 145.441 39.8535 143.446 39.8535 140.986V123.27C39.8535 120.81 37.8588 118.815 35.3981 118.815Z" fill="#263238"/>
<path d="M24.1696 161.9H23.6113V133.744C23.6128 132.402 24.1468 131.115 25.0961 130.165C26.0455 129.216 27.3327 128.682 28.6752 128.68H30.0152V129.239H28.6752C27.4807 129.24 26.3356 129.715 25.4909 130.56C24.6463 131.405 24.1711 132.55 24.1696 133.744V161.9Z" fill="#263238"/>
<path d="M27.9721 161.934L26.4199 135.609C26.3981 135.159 26.4674 134.709 26.6235 134.287C26.7796 133.864 27.0193 133.477 27.3285 133.149C27.6376 132.821 28.0096 132.559 28.4224 132.378C28.8352 132.198 29.2802 132.102 29.7307 132.097V132.656C29.355 132.656 28.9832 132.733 28.6382 132.882C28.2933 133.031 27.9824 133.249 27.7246 133.522C27.4669 133.795 27.2677 134.119 27.1394 134.472C27.011 134.825 26.9562 135.201 26.9783 135.576L28.5304 161.906L27.9721 161.934Z" fill="#263238"/>
<path d="M29.7312 159.365H22.2051V168.081H29.7312V159.365Z" fill="#263238"/>
<path d="M26.9502 142.822H23.8906V143.381H26.9502V142.822Z" fill="#263238"/>
<path d="M52.4989 102.568L53.1633 102.479L55.123 102.25L62.7161 101.373L91.0227 98.1518C92.5301 97.9899 94.0655 97.7889 95.6567 97.6493C96.4696 97.5873 97.2871 97.64 98.0853 97.8056C98.897 97.9954 99.6799 98.2921 100.414 98.6878C101.927 99.5299 103.154 100.805 103.936 102.35C104.341 103.14 104.615 103.991 104.746 104.868C104.816 105.312 104.855 105.759 104.863 106.208V107.554C104.863 114.762 104.863 122.5 104.863 130.702C104.863 147.105 104.863 165.351 104.863 184.858V185.003H75.4568C73.7781 184.948 72.0977 185.028 70.432 185.243C66.9958 185.738 63.754 187.141 61.0411 189.307C58.3283 191.473 56.2429 194.324 55.0001 197.565C54.759 198.161 54.5557 198.77 54.3916 199.391C54.2101 200.005 54.0665 200.63 53.9617 201.261L53.8165 202.211L53.7495 202.685L53.7216 203.16L53.6769 204.114V204.595V204.65C53.7998 204.528 53.5039 204.84 53.5262 204.807H16.2363V204.65C16.2363 196.237 16.2363 188.124 16.2363 180.375C16.2363 176.5 16.2363 172.717 16.2363 169.024V163.564C16.2363 162.665 16.2363 161.777 16.2363 160.89C16.2545 160.007 16.3179 159.125 16.4262 158.249C16.8519 154.871 17.9248 151.607 19.5862 148.635C21.1234 145.743 22.6123 142.951 24.0527 140.26L31.9697 125.425L38.3959 113.383C38.8648 112.508 39.3152 111.661 39.747 110.842C39.9703 110.44 40.1657 110.033 40.4002 109.653C40.6314 109.282 40.883 108.924 41.1539 108.581C42.1222 107.374 43.2621 106.315 44.5373 105.438C46.2937 104.245 48.2573 103.392 50.3271 102.92C51.0376 102.749 51.7598 102.632 52.4877 102.568L51.9294 102.652C51.5665 102.708 51.0305 102.803 50.3271 102.964C48.2695 103.451 46.3197 104.314 44.5764 105.51C43.3119 106.388 42.1832 107.448 41.2265 108.654C40.9562 108.991 40.7082 109.345 40.484 109.714C40.2551 110.083 40.0596 110.496 39.8363 110.904L38.4908 113.45L32.1204 125.504C29.7308 130.004 27.0956 134.967 24.2482 140.349L19.7816 148.724C18.1356 151.673 17.0758 154.914 16.6606 158.266C16.5542 159.135 16.4927 160.009 16.4764 160.884C16.4764 161.761 16.4764 162.66 16.4764 163.553V169.013C16.4764 172.702 16.4764 176.485 16.4764 180.364C16.4764 188.113 16.4764 196.225 16.4764 204.639L16.3368 204.505H53.4815C53.5206 204.477 53.2135 204.773 53.342 204.639V204.578V204.098L53.3922 203.126V202.646L53.4648 202.166L53.61 201.2C53.716 200.559 53.8615 199.925 54.0454 199.302C54.2125 198.671 54.4194 198.052 54.6652 197.448C55.9277 194.159 58.0444 191.267 60.7972 189.068C63.55 186.87 66.8393 185.446 70.3259 184.942C71.9919 184.73 73.6721 184.65 75.3507 184.702H104.623L104.478 184.841C104.478 165.356 104.478 147.11 104.478 130.685C104.478 122.483 104.478 114.745 104.478 107.537C104.514 106.651 104.477 105.764 104.366 104.885C104.239 104.027 103.973 103.195 103.579 102.423C102.821 100.913 101.624 99.6671 100.146 98.8497C99.4328 98.4595 98.6702 98.1683 97.8788 97.9843C97.0993 97.8198 96.3005 97.7653 95.5059 97.8224C93.9259 97.9564 92.3794 98.1574 90.8775 98.3193L62.5765 101.451L54.9778 102.283L53.0181 102.49L52.4989 102.568Z" fill="#263238"/>
<path d="M95.9524 164.273C95.9524 164.273 96.1087 164.273 96.3879 164.206C96.7984 164.133 97.1897 163.977 97.538 163.748C98.0872 163.388 98.4985 162.853 98.7049 162.23C98.8311 161.841 98.8822 161.431 98.8556 161.024C98.8436 160.571 98.727 160.128 98.5151 159.728C98.2721 159.271 97.9108 158.887 97.4689 158.617C97.0269 158.347 96.5205 158.2 96.0026 158.193H92.3178H83.876C83.1732 158.194 82.4952 158.453 81.9712 158.922C81.4472 159.39 81.1137 160.035 81.0342 160.733C80.9465 161.396 81.0696 162.07 81.386 162.659C81.6998 163.217 82.1911 163.653 82.7817 163.899C83.3657 164.102 83.9862 164.178 84.6018 164.122H86.3885H89.5988L94.2495 164.167H95.5169C95.6628 164.164 95.8087 164.175 95.9524 164.2C95.8079 164.218 95.6625 164.227 95.5169 164.228H94.2495L89.5988 164.273H86.3885H84.6018C84.2892 164.273 83.9877 164.273 83.6583 164.273C83.3233 164.248 82.9939 164.173 82.6812 164.05C82.0354 163.782 81.4972 163.306 81.1515 162.698C80.8047 162.059 80.668 161.326 80.7606 160.605C80.8469 159.838 81.2121 159.13 81.7866 158.616C82.361 158.101 83.1047 157.815 83.876 157.813H92.3178H96.0026C96.808 157.829 97.5755 158.158 98.1425 158.73C98.7095 159.302 99.0313 160.073 99.0399 160.878C99.0576 161.305 98.9951 161.731 98.8556 162.135C98.626 162.783 98.1831 163.334 97.5994 163.698C97.2352 163.925 96.8252 164.068 96.3991 164.117C96.2571 164.187 96.1071 164.239 95.9524 164.273Z" fill="#263238"/>
<path d="M94.9306 157.261C93.3397 157.401 91.7421 157.447 90.1458 157.4C88.5477 157.447 86.9482 157.401 85.3555 157.261C86.9479 157.117 88.5476 157.068 90.1458 157.115C91.7422 157.068 93.34 157.117 94.9306 157.261Z" fill="white"/>
<path d="M57.8982 226.804L53.4316 226.48C54.5985 210.484 56.307 200.915 58.6575 197.224C63.1687 190.134 67.6519 188.85 72.6154 188.007C77.2382 187.219 81.9001 187.404 86.4113 187.588L87.528 187.633C96.8407 187.996 116.348 187.672 116.56 187.672L116.633 192.138C116.438 192.138 96.8072 192.468 87.3716 192.099L86.255 192.054C81.9727 191.887 77.5509 191.703 73.3858 192.417C68.9472 193.171 65.9937 194.037 62.4317 199.631C61.3541 201.3 59.333 207.101 57.8982 226.804Z" fill="#263238"/>
<path d="M338.903 44.5925H118.938V191.05H338.903V44.5925Z" fill="#F18F01"/>
<path d="M336.268 188.152C336.268 187.208 336.224 133.493 336.151 47.9031L336.268 48.0148L121.317 48.0483L121.462 47.9031C121.462 97.7551 121.462 145.206 121.462 188.152L121.328 188.018L336.28 188.152L121.328 188.286H121.172V188.152C121.172 145.206 121.172 97.7551 121.172 47.9031V47.7635H121.334L336.285 47.7915H336.402V47.9087C336.313 133.493 336.268 187.214 336.268 188.152Z" fill="#263238"/>
<path d="M87.6717 113.947C87.6717 113.947 87.6047 114.014 87.4651 114.12L86.851 114.561C86.2926 114.946 85.5278 115.482 84.5563 116.146C82.6078 117.464 79.8944 119.262 76.8683 121.199C73.8422 123.136 71.0786 124.85 69.0519 126.073C68.0469 126.682 67.2262 127.19 66.6567 127.502L65.9979 127.871C65.9228 127.919 65.8422 127.959 65.7578 127.988C65.7578 127.988 65.8248 127.921 65.9644 127.826L66.5953 127.402L68.9458 125.9L76.7008 120.953L84.4279 115.973L86.7784 114.471L87.426 114.069C87.5032 114.02 87.5856 113.978 87.6717 113.947Z" fill="#FAFAFA"/>
<path d="M78.1307 116.47C78.1307 116.47 78.0637 116.537 77.9241 116.643L77.3099 117.084C76.7516 117.464 75.9867 118.006 75.0097 118.664C73.0612 119.988 70.3478 121.78 67.3273 123.689C64.3068 125.599 61.5375 127.346 59.5109 128.569C58.5059 129.177 57.6852 129.686 57.1157 129.993L56.4569 130.367C56.3831 130.416 56.3021 130.454 56.2168 130.478C56.2794 130.417 56.3487 130.363 56.4234 130.316L57.0543 129.898L59.3992 128.39L67.1598 123.449L74.8869 118.469L77.2374 116.962L77.8794 116.565C77.9586 116.523 78.0431 116.491 78.1307 116.47Z" fill="#FAFAFA"/>
<path d="M31.1262 132.723C31.0407 132.57 30.9821 132.404 30.9532 132.231C30.8638 131.913 30.741 131.444 30.6014 130.864C30.2344 129.346 30.047 127.791 30.0431 126.23C30.0352 124.652 30.3986 123.096 31.1039 121.685C31.3245 121.263 31.5904 120.866 31.8967 120.501C32 120.362 32.1243 120.239 32.2652 120.138C31.9088 120.668 31.5808 121.216 31.2826 121.78C30.6463 123.182 30.3206 124.706 30.3278 126.246C30.3448 127.789 30.5112 129.325 30.8247 130.836C30.9644 131.458 31.0651 132.088 31.1262 132.723Z" fill="#FAFAFA"/>
<path d="M8.3921 172.307C8.37191 172.108 8.37191 171.908 8.3921 171.71C8.3921 171.308 8.3921 170.727 8.4256 170.035C8.47026 168.6 8.57634 166.618 8.74942 164.451C8.9225 162.285 9.12907 160.298 9.30773 158.868C9.39706 158.154 9.47523 157.579 9.53664 157.193C9.55766 156.987 9.60071 156.783 9.66505 156.585C9.69311 156.792 9.69311 157.003 9.66505 157.21L9.51989 158.885C9.39706 160.381 9.22957 162.319 9.04532 164.468C8.86108 166.618 8.74942 168.55 8.64334 170.051C8.59309 170.721 8.54843 171.285 8.51493 171.726C8.49793 171.924 8.45668 172.119 8.3921 172.307Z" fill="#FAFAFA"/>
<path d="M69.5773 183.144C69.5773 183.206 68.4998 183.356 66.8304 183.898C65.8533 184.215 64.8999 184.601 63.9774 185.054C61.7171 186.176 59.6722 187.688 57.9365 189.52C57.2277 190.263 56.5728 191.056 55.9768 191.893C54.9662 193.328 54.4917 194.316 54.4414 194.288C54.5244 194.045 54.629 193.809 54.7541 193.585C54.879 193.312 55.0207 193.047 55.1784 192.792C55.357 192.49 55.5525 192.139 55.8093 191.776C56.3873 190.912 57.0333 190.097 57.7411 189.336C58.6183 188.406 59.5727 187.553 60.594 186.784C61.6248 186.036 62.7196 185.38 63.8658 184.825C64.802 184.375 65.7729 184.002 66.769 183.708C67.1877 183.568 67.5842 183.49 67.9247 183.407C68.2176 183.336 68.5139 183.28 68.8124 183.239C69.0638 183.183 69.3199 183.151 69.5773 183.144Z" fill="#FAFAFA"/>
<path d="M286.098 247.097C300.869 246.506 312.364 234.054 311.773 219.283C311.182 204.513 298.73 193.018 283.959 193.608C269.189 194.199 257.694 206.652 258.284 221.422C258.875 236.193 271.328 247.688 286.098 247.097Z" fill="#263238"/>
<path d="M258.255 219.92C258.255 219.92 258.255 219.971 258.255 219.993C258.153 227.09 260.874 233.937 265.82 239.028C270.766 244.119 277.532 247.036 284.63 247.138C291.727 247.24 298.574 244.519 303.665 239.573C308.755 234.627 311.673 227.861 311.775 220.763V220.696L258.255 219.92Z" fill="#263238"/>
<path d="M266.222 220.104C266.168 223.82 267.217 227.467 269.236 230.586C271.256 233.705 274.155 236.155 277.566 237.627C280.978 239.098 284.75 239.525 288.404 238.853C292.058 238.182 295.432 236.441 298.097 233.853C300.762 231.264 302.6 227.943 303.378 224.309C304.156 220.676 303.839 216.894 302.467 213.441C301.096 209.987 298.731 207.019 295.672 204.909C292.613 202.8 288.998 201.645 285.283 201.591C280.3 201.519 275.493 203.429 271.919 206.901C268.344 210.373 266.295 215.122 266.222 220.104Z" fill="#FAFAFA"/>
<path d="M285.283 201.591C282.815 201.554 280.365 202.005 278.072 202.916C275.779 203.826 273.687 205.18 271.917 206.899C270.147 208.619 268.733 210.67 267.756 212.935C266.779 215.201 266.257 217.637 266.222 220.104L303.796 220.663C303.834 218.195 303.385 215.743 302.475 213.449C301.564 211.154 300.211 209.061 298.492 207.29C296.772 205.519 294.721 204.104 292.454 203.126C290.188 202.148 287.751 201.626 285.283 201.591Z" fill="#E0E0E0"/>
<path d="M273.592 220.211C273.559 222.474 274.198 224.697 275.429 226.597C276.659 228.497 278.425 229.99 280.504 230.887C282.583 231.783 284.881 232.043 287.107 231.633C289.333 231.224 291.388 230.163 293.012 228.586C294.636 227.008 295.755 224.984 296.229 222.771C296.702 220.557 296.508 218.252 295.672 216.149C294.836 214.045 293.395 212.237 291.53 210.952C289.666 209.668 287.463 208.965 285.199 208.933C282.165 208.889 279.237 210.053 277.06 212.168C274.884 214.283 273.636 217.176 273.592 220.211Z" fill="#263238"/>
<path d="M249.83 227.709C249.83 227.709 245.754 189.743 285.093 189.743C321.384 189.743 320.58 222.393 320.234 227.446H314.544C314.544 227.446 317.442 195.265 285.093 195.265C252.744 195.265 255.558 228.099 255.558 228.099C255.558 228.099 253.169 227.982 249.83 227.709Z" fill="#455A64"/>
<path d="M270.9 193.674C270.803 193.724 270.7 193.761 270.593 193.786C270.387 193.858 270.08 193.931 269.7 194.065C268.609 194.412 267.54 194.828 266.501 195.31C263.062 196.887 260.015 199.207 257.58 202.104C255.146 205 253.383 208.4 252.42 212.059C252.125 213.161 251.9 214.279 251.745 215.409C251.683 215.811 251.661 216.124 251.627 216.336C251.618 216.445 251.599 216.554 251.572 216.66C251.558 216.552 251.558 216.443 251.572 216.336C251.572 216.118 251.572 215.778 251.639 215.398C251.749 214.249 251.947 213.111 252.23 211.992C253.146 208.277 254.901 204.822 257.361 201.892C259.822 198.962 262.922 196.636 266.423 195.092C267.476 194.622 268.562 194.23 269.672 193.92C270.063 193.808 270.376 193.746 270.582 193.696C270.687 193.677 270.794 193.669 270.9 193.674Z" fill="#FAFAFA"/>
<g clip-path="url(#clip0)">
<path d="M294.431 109.275C294.396 109.272 294.36 109.272 294.324 109.275V108.136C294.323 107.287 293.984 106.473 293.384 105.873C292.783 105.273 291.968 104.936 291.119 104.936H187.934C187.966 104.817 187.983 104.693 187.983 104.569C187.983 104.363 187.943 104.159 187.864 103.969C187.785 103.778 187.67 103.605 187.524 103.46C187.378 103.314 187.205 103.198 187.015 103.12C186.825 103.041 186.621 103 186.415 103H174.879C174.463 103.001 174.065 103.167 173.771 103.461C173.477 103.755 173.311 104.153 173.31 104.569C173.313 104.693 173.329 104.816 173.359 104.936H171.257C170.408 104.936 169.594 105.273 168.993 105.873C168.392 106.473 168.054 107.287 168.053 108.136V118.328C167.898 118.271 167.734 118.24 167.569 118.238C167.362 118.238 167.158 118.279 166.967 118.358C166.777 118.437 166.604 118.553 166.458 118.699C166.312 118.846 166.197 119.019 166.118 119.21C166.04 119.401 165.999 119.605 166 119.812V131.348C166.001 131.763 166.167 132.162 166.461 132.456C166.755 132.75 167.153 132.915 167.569 132.916C167.733 132.914 167.897 132.885 168.053 132.831V134.866C168.054 135.716 168.392 136.53 168.993 137.131C169.593 137.731 170.408 138.069 171.257 138.071H274.68C274.658 138.171 274.648 138.273 274.649 138.375C274.649 138.791 274.814 139.19 275.108 139.485C275.402 139.779 275.801 139.944 276.217 139.944H287.749C288.165 139.944 288.564 139.779 288.858 139.485C289.152 139.19 289.318 138.791 289.318 138.375C289.318 138.273 289.308 138.171 289.286 138.071H291.119C291.969 138.069 292.783 137.731 293.384 137.131C293.985 136.53 294.323 135.716 294.324 134.866V124.065H294.431C294.847 124.064 295.245 123.898 295.539 123.604C295.833 123.31 295.999 122.912 296 122.496V110.843C295.998 110.428 295.832 110.031 295.538 109.737C295.244 109.443 294.847 109.277 294.431 109.275ZM182.583 122.622H185.953V125.028H185.196C185.179 125.098 185.139 125.16 185.083 125.205C185.027 125.249 184.958 125.274 184.886 125.275H183.636C183.564 125.274 183.495 125.249 183.439 125.205C183.383 125.16 183.344 125.098 183.327 125.028H182.583V122.622ZM180.727 127.381C180.726 127.462 180.696 127.539 180.641 127.598C180.586 127.657 180.512 127.693 180.432 127.7V128.058H178.719V131.043H175.349V124.858H175.318C175.231 124.858 175.148 124.824 175.086 124.762C175.025 124.701 174.991 124.618 174.991 124.531V123.289C174.991 123.203 175.025 123.12 175.086 123.058C175.148 122.997 175.231 122.962 175.318 122.962H175.349V122.617H178.719V125.481H180.432V125.804C180.512 125.81 180.586 125.847 180.641 125.906C180.696 125.965 180.726 126.042 180.727 126.122V127.381ZM186.249 128.627C186.249 128.711 186.217 128.792 186.16 128.853C186.102 128.913 186.023 128.95 185.94 128.955V131.043H182.583V128.058H180.88V125.486H182.583H185.953V127.063C186.036 127.067 186.115 127.102 186.173 127.162C186.23 127.222 186.262 127.303 186.262 127.386L186.249 128.627ZM273.685 122.622H275.805V124.961H273.703L273.685 122.622ZM250.151 115.124C250.151 115.037 250.185 114.954 250.247 114.892C250.308 114.831 250.391 114.796 250.478 114.796V114.433H253.844V117.387H255.278C256.717 117.387 257.555 116.764 257.555 115.684C257.555 114.604 256.717 113.985 255.278 113.985H253.163C253.152 114.061 253.114 114.13 253.057 114.18C252.999 114.23 252.925 114.258 252.849 114.259H251.603C251.526 114.258 251.452 114.231 251.393 114.181C251.335 114.131 251.297 114.061 251.285 113.985H250.496V111.516H255.569C258.492 111.516 260.473 112.703 260.894 114.828H260.952C260.995 114.828 261.038 114.836 261.077 114.853C261.117 114.869 261.153 114.893 261.183 114.924C261.214 114.954 261.238 114.99 261.254 115.03C261.271 115.069 261.279 115.112 261.279 115.155V116.405C261.279 116.492 261.245 116.575 261.183 116.637C261.122 116.698 261.039 116.733 260.952 116.733C260.925 116.737 260.898 116.737 260.871 116.733C260.423 118.776 258.438 119.924 255.569 119.924H250.478V116.701C250.391 116.701 250.308 116.667 250.247 116.605C250.185 116.544 250.151 116.461 250.151 116.374V115.124ZM247.063 111.516H249.16V113.837H247.063V111.516ZM249.304 117.571V119.892H243.572V117.553L249.304 117.571ZM239.502 115.124C239.502 115.037 239.537 114.954 239.598 114.892C239.659 114.831 239.742 114.796 239.829 114.796V111.516H246.606V111.771C246.685 111.781 246.757 111.819 246.81 111.879C246.863 111.938 246.892 112.014 246.893 112.094V113.308C246.892 113.387 246.862 113.463 246.81 113.522C246.757 113.581 246.684 113.618 246.606 113.627V113.801H243.105V114.577H246.624V114.666C246.699 114.678 246.767 114.716 246.816 114.774C246.865 114.831 246.892 114.904 246.893 114.98V116.231C246.893 116.307 246.866 116.381 246.816 116.439C246.767 116.497 246.699 116.536 246.624 116.549V116.661H243.105V117.535V117.723C243.184 117.733 243.256 117.77 243.308 117.829C243.361 117.887 243.391 117.963 243.392 118.041V119.292C243.392 119.371 243.362 119.447 243.309 119.505C243.256 119.564 243.184 119.601 243.105 119.61V119.856H239.82V116.697C239.733 116.697 239.65 116.662 239.589 116.601C239.528 116.54 239.493 116.456 239.493 116.37L239.502 115.124ZM242.402 125.226L241.295 125.808C241.235 125.839 241.166 125.851 241.099 125.84C241.032 125.83 240.971 125.798 240.923 125.75L240.403 126.028C240.175 125.67 239.857 125.379 239.481 125.182C239.105 124.986 238.684 124.891 238.261 124.907C237.086 124.907 236.266 125.526 236.145 126.561H235.415C235.394 126.626 235.354 126.683 235.299 126.724C235.244 126.765 235.178 126.788 235.11 126.79H233.859C233.79 126.789 233.723 126.767 233.668 126.726C233.612 126.685 233.571 126.627 233.55 126.561H232.712C232.855 123.836 235.092 122.33 238.31 122.33C240.573 122.33 242.388 123.316 243.11 124.571L242.568 124.858C242.585 124.93 242.577 125.006 242.545 125.073C242.514 125.14 242.46 125.194 242.393 125.226H242.402ZM236.23 111.516H238.919V111.771C239.002 111.776 239.079 111.812 239.136 111.872C239.193 111.932 239.224 112.011 239.224 112.094V113.308C239.223 113.39 239.191 113.469 239.135 113.528C239.078 113.587 239.001 113.622 238.919 113.627V113.931H236.23V111.516ZM224.994 111.516H228.347V113.801H227.625C227.616 113.88 227.578 113.952 227.52 114.004C227.461 114.057 227.386 114.087 227.307 114.088H226.057C225.978 114.087 225.902 114.057 225.844 114.004C225.786 113.952 225.748 113.88 225.738 113.801H224.994V111.516ZM224.994 114.268H228.347V116.258C228.428 116.263 228.503 116.299 228.559 116.358C228.615 116.417 228.646 116.495 228.647 116.576V117.831C228.646 117.912 228.615 117.989 228.559 118.048C228.503 118.107 228.428 118.143 228.347 118.149V119.892H224.994V114.268ZM226.541 125.396V125.678C226.621 125.684 226.697 125.72 226.753 125.779C226.809 125.838 226.84 125.915 226.841 125.997V127.247C226.84 127.328 226.809 127.407 226.753 127.466C226.698 127.526 226.622 127.563 226.541 127.57V128.049C224.058 127.794 221.969 127.153 221.969 125.275C221.969 123.397 224.026 122.348 226.818 122.348C228.505 122.309 230.171 122.721 231.645 123.54L230.117 125.409C229.119 124.838 227.981 124.556 226.832 124.594C226.097 124.594 225.277 124.665 225.277 124.988C225.277 125.199 225.694 125.297 226.541 125.378V125.396ZM212.974 111.516H216.519L220.275 115.549V111.516H223.506V114.774C223.584 114.784 223.655 114.821 223.707 114.88C223.759 114.939 223.788 115.014 223.789 115.092V116.343C223.787 116.421 223.758 116.496 223.706 116.554C223.655 116.612 223.584 116.65 223.506 116.661V119.892H220.562L216.197 115.316V115.339L212.974 111.964V111.516ZM212.974 112.632L213.982 113.685C214.046 113.644 214.121 113.625 214.197 113.634C214.272 113.642 214.342 113.676 214.395 113.73L215.242 114.653C215.29 114.705 215.32 114.771 215.327 114.842C215.333 114.912 215.316 114.983 215.278 115.043L216.197 115.998V119.888H212.965L212.974 112.632ZM206.655 117.562C207.807 117.486 208.282 116.665 208.282 115.661V111.516H211.634V113.429C211.717 113.433 211.796 113.468 211.854 113.529C211.911 113.589 211.943 113.669 211.943 113.752V115.003C211.943 115.086 211.911 115.166 211.854 115.226C211.796 115.286 211.717 115.322 211.634 115.325V115.944C211.634 118.516 209.841 120.116 206.655 120.175V117.562ZM201.039 112.224C201.04 112.142 201.071 112.064 201.127 112.004C201.182 111.945 201.258 111.908 201.339 111.901V111.516H204.692V115.679C204.692 116.661 205.14 117.472 206.207 117.571V118.019C206.276 118.037 206.337 118.078 206.38 118.135C206.424 118.192 206.448 118.261 206.449 118.333V119.583C206.447 119.654 206.423 119.722 206.379 119.778C206.335 119.834 206.275 119.874 206.207 119.892V120.188C203.105 120.098 201.339 118.503 201.339 115.962V113.797C201.258 113.789 201.183 113.752 201.128 113.693C201.072 113.633 201.041 113.556 201.039 113.474V112.224ZM192.523 129.017C192.523 129.092 192.496 129.164 192.448 129.222C192.399 129.279 192.333 129.317 192.259 129.331V129.721H190.583L189.996 131.065H186.504L189.108 125.831L189.014 125.804C188.975 125.784 188.94 125.757 188.911 125.724C188.882 125.691 188.861 125.652 188.847 125.61C188.834 125.568 188.829 125.524 188.833 125.481C188.837 125.437 188.85 125.394 188.871 125.356L189.436 124.24C189.455 124.2 189.482 124.165 189.515 124.137C189.549 124.108 189.587 124.086 189.629 124.073C189.671 124.059 189.715 124.055 189.759 124.059C189.803 124.063 189.845 124.075 189.884 124.096C189.908 124.11 189.93 124.127 189.951 124.146L190.699 122.635H190.726L191.071 123.393C191.146 123.366 191.228 123.367 191.302 123.397C191.375 123.427 191.435 123.483 191.47 123.554L191.995 124.665C192.033 124.745 192.039 124.837 192.011 124.921C191.982 125.005 191.922 125.074 191.842 125.114L192.246 126.01L191.502 127.673H192.255V127.901C192.328 127.915 192.395 127.953 192.443 128.011C192.491 128.068 192.518 128.14 192.519 128.215L192.523 129.017ZM195.011 131.043L194.419 129.699H192.698V127.673H193.496L192.497 125.432L191.219 122.595H194.357L195.768 125.436C195.807 125.416 195.85 125.403 195.894 125.399C195.938 125.396 195.982 125.401 196.024 125.415C196.066 125.429 196.104 125.451 196.138 125.48C196.171 125.509 196.197 125.544 196.217 125.584L196.75 126.754C196.771 126.792 196.785 126.834 196.79 126.878C196.794 126.922 196.79 126.966 196.777 127.008C196.764 127.05 196.743 127.089 196.714 127.122C196.685 127.156 196.65 127.183 196.611 127.202L198.538 131.079L195.011 131.043ZM202.751 124.307C202.751 124.384 202.722 124.458 202.671 124.516C202.62 124.574 202.55 124.611 202.473 124.621V124.93V126.615V126.879C202.55 126.891 202.621 126.93 202.672 126.989C202.723 127.049 202.751 127.124 202.751 127.202V128.004C202.75 128.082 202.721 128.156 202.67 128.214C202.619 128.273 202.55 128.311 202.473 128.323V128.739V131.048H199.103V127.484C199.079 127.487 199.055 127.487 199.031 127.484C198.945 127.484 198.863 127.451 198.801 127.39C198.74 127.33 198.705 127.248 198.704 127.162V125.907C198.705 125.821 198.74 125.739 198.801 125.678C198.863 125.618 198.945 125.584 199.031 125.584C199.055 125.582 199.079 125.582 199.103 125.584V122.622H202.451V122.72C202.527 122.732 202.597 122.77 202.648 122.829C202.699 122.887 202.727 122.961 202.729 123.039L202.751 124.307ZM205.888 131.03L203.997 128.721H202.899V126.615H204.871C205.521 126.615 205.978 126.4 205.978 125.772C205.978 125.145 205.53 124.93 204.871 124.93H202.899V122.622H205.14C207.107 122.622 208.757 123.307 209.227 124.777H209.254C209.341 124.777 209.424 124.812 209.486 124.873C209.547 124.935 209.581 125.018 209.581 125.105V126.351C209.581 126.437 209.547 126.521 209.486 126.582C209.424 126.643 209.341 126.678 209.254 126.678C209.236 126.68 209.218 126.68 209.2 126.678C209.04 127.086 208.789 127.453 208.467 127.751C208.145 128.049 207.76 128.271 207.34 128.399L209.631 131.057L205.888 131.03ZM221.391 127.278C221.389 127.357 221.36 127.432 221.307 127.491C221.254 127.549 221.182 127.587 221.104 127.597C220.723 129.793 218.715 131.03 215.726 131.03H210.585V125.589H213.956V128.547H215.399C216.842 128.547 217.684 127.919 217.684 126.835C217.684 125.75 216.842 125.127 215.399 125.127H213.126C213.106 125.193 213.065 125.251 213.009 125.292C212.953 125.333 212.886 125.355 212.817 125.356H211.567C211.498 125.355 211.432 125.332 211.377 125.291C211.322 125.25 211.282 125.193 211.262 125.127H210.585V122.622H215.686C218.518 122.622 220.468 123.733 220.988 125.719H221.019C221.062 125.719 221.104 125.727 221.144 125.744C221.184 125.76 221.22 125.784 221.25 125.814C221.281 125.845 221.305 125.881 221.321 125.921C221.338 125.96 221.346 126.003 221.346 126.046L221.391 127.278ZM232.295 128.766C232.294 128.852 232.259 128.934 232.198 128.995C232.137 129.055 232.054 129.089 231.968 129.089H231.91C231.462 130.474 229.889 131.33 227.226 131.33C225.226 131.408 223.252 130.863 221.575 129.77L223.188 127.915C224.394 128.678 225.795 129.075 227.222 129.058C228.212 129.058 228.678 128.914 228.678 128.609C228.678 128.305 228.36 128.188 226.984 128.072V125.409H227.069C229.396 125.607 231.184 125.992 231.775 127.202C231.82 127.179 231.869 127.166 231.919 127.166C232.005 127.166 232.087 127.2 232.149 127.261C232.21 127.321 232.245 127.403 232.246 127.489L232.295 128.766ZM232.331 118.14C232.244 118.14 232.161 118.105 232.1 118.044C232.038 117.983 232.004 117.899 232.004 117.813V116.558C232.005 116.472 232.04 116.39 232.101 116.329C232.163 116.269 232.245 116.235 232.331 116.235H232.412V113.949H229.252V111.516H235.782V111.78C235.852 111.798 235.914 111.838 235.959 111.895C236.003 111.952 236.028 112.022 236.029 112.094V113.308C236.028 113.38 236.003 113.449 235.958 113.505C235.914 113.561 235.852 113.601 235.782 113.618V113.931V119.874H232.434V118.122C232.401 118.131 232.366 118.137 232.331 118.14ZM238.157 131.334C235.02 131.334 232.779 129.797 232.676 127.009H236.105C236.185 128.103 237.001 128.757 238.229 128.757C238.663 128.777 239.094 128.681 239.479 128.48C239.863 128.28 240.188 127.981 240.421 127.614L243.11 129.049C242.406 130.371 240.564 131.334 238.18 131.334H238.157ZM248.649 129.017C248.648 129.089 248.623 129.159 248.577 129.215C248.532 129.271 248.469 129.31 248.398 129.327V129.721H246.736L246.149 131.065H242.657L245.266 125.822H245.203C245.164 125.802 245.128 125.775 245.1 125.742C245.071 125.709 245.05 125.67 245.036 125.628C245.023 125.586 245.018 125.542 245.022 125.498C245.026 125.455 245.039 125.412 245.06 125.374L245.624 124.258C245.644 124.218 245.671 124.183 245.704 124.154C245.737 124.126 245.776 124.104 245.818 124.091C245.86 124.077 245.904 124.073 245.948 124.077C245.991 124.081 246.034 124.093 246.072 124.114C246.072 124.114 246.099 124.137 246.113 124.146L246.852 122.653L247.211 123.446C247.284 123.423 247.364 123.426 247.435 123.456C247.507 123.485 247.565 123.539 247.601 123.608L248.143 124.737C248.164 124.776 248.177 124.819 248.181 124.863C248.185 124.907 248.18 124.951 248.166 124.993C248.153 125.035 248.13 125.074 248.101 125.107C248.071 125.14 248.035 125.167 247.995 125.185L248.39 126.082L247.646 127.74H248.394V127.969C248.465 127.985 248.528 128.026 248.573 128.082C248.619 128.139 248.644 128.209 248.645 128.282L248.649 129.017ZM251.155 131.043L250.563 129.699H248.869V127.673H249.671L248.672 125.432V125.459L247.395 122.617H250.532L251.957 125.481L251.984 125.459C252.023 125.437 252.066 125.424 252.11 125.42C252.154 125.416 252.198 125.421 252.24 125.435C252.282 125.449 252.321 125.471 252.354 125.501C252.387 125.53 252.414 125.566 252.432 125.607L252.948 126.754C252.969 126.793 252.983 126.836 252.987 126.88C252.991 126.925 252.986 126.97 252.971 127.012C252.957 127.054 252.934 127.093 252.903 127.126C252.873 127.159 252.836 127.185 252.795 127.202L254.713 131.065L251.155 131.043ZM258.913 124.32C258.912 124.397 258.884 124.471 258.834 124.529C258.784 124.587 258.715 124.626 258.639 124.639V124.921V126.714V126.857C258.715 126.87 258.784 126.908 258.834 126.967C258.884 127.025 258.912 127.099 258.913 127.175V127.977C258.912 128.054 258.884 128.128 258.834 128.186C258.784 128.244 258.715 128.283 258.639 128.296V128.834V131.021H255.278V127.493H255.242C255.156 127.493 255.074 127.46 255.012 127.399C254.951 127.339 254.916 127.257 254.915 127.171V125.916C254.916 125.83 254.951 125.748 255.012 125.687C255.074 125.627 255.156 125.593 255.242 125.593H255.278V122.622H258.662V122.765C258.738 122.776 258.807 122.813 258.857 122.871C258.907 122.929 258.935 123.002 258.935 123.079L258.913 124.32ZM265.685 126.342C265.685 126.428 265.65 126.512 265.589 126.573C265.528 126.634 265.445 126.669 265.358 126.669C265.341 126.671 265.325 126.671 265.308 126.669C264.86 128.152 263.359 128.86 261.225 128.86H259.088V126.754H260.948C261.575 126.754 262.046 126.503 262.046 125.858C262.046 125.212 261.597 124.961 260.948 124.961H259.088V122.622H261.225C263.345 122.622 264.86 123.321 265.304 124.782H265.358C265.401 124.781 265.444 124.789 265.484 124.806C265.524 124.822 265.56 124.846 265.59 124.876C265.621 124.907 265.645 124.943 265.661 124.983C265.677 125.023 265.686 125.066 265.685 125.109V126.342ZM269.992 130.416C269.991 130.492 269.963 130.566 269.913 130.624C269.863 130.682 269.794 130.721 269.719 130.734V131.034H266.393V122.622H273.219V122.774C273.294 122.787 273.362 122.826 273.412 122.884C273.461 122.942 273.488 123.016 273.488 123.092V124.343C273.487 124.418 273.459 124.491 273.41 124.548C273.361 124.606 273.293 124.644 273.219 124.656V124.961H269.71V125.741H273.25C273.334 125.746 273.413 125.782 273.47 125.843C273.528 125.904 273.56 125.984 273.559 126.068V127.319C273.56 127.402 273.527 127.482 273.47 127.542C273.412 127.602 273.333 127.638 273.25 127.641V127.825H269.71V128.721H269.741V128.874C269.816 128.885 269.885 128.923 269.935 128.981C269.985 129.038 270.013 129.111 270.014 129.188L269.992 130.416ZM275.895 131.034H270.189V128.708H275.917L275.895 131.034ZM281.757 122.321C283.443 122.283 285.109 122.695 286.584 123.514L285.078 125.409C284.079 124.838 282.942 124.556 281.793 124.594C281.058 124.594 280.237 124.665 280.237 124.988C280.237 125.311 280.735 125.338 281.761 125.436V125.696C281.842 125.702 281.918 125.738 281.974 125.797C282.029 125.856 282.061 125.933 282.062 126.014V127.265C282.061 127.346 282.029 127.425 281.974 127.484C281.918 127.544 281.842 127.581 281.761 127.588V128.094C279.166 127.856 276.93 127.229 276.93 125.293C276.93 123.357 278.987 122.33 281.779 122.33L281.757 122.321ZM287.247 128.771C287.247 128.856 287.213 128.938 287.152 128.999C287.092 129.059 287.01 129.093 286.924 129.093C286.884 129.093 286.845 129.086 286.808 129.071C286.36 130.465 284.786 131.312 282.115 131.312C280.135 131.376 278.182 130.83 276.522 129.748L278.135 127.892C279.341 128.656 280.742 129.053 282.169 129.035C283.155 129.035 283.626 128.892 283.626 128.587C283.626 128.282 283.339 128.188 282.191 128.072V125.441C284.432 125.642 286.171 126.041 286.736 127.269C286.783 127.232 286.84 127.209 286.9 127.203C286.96 127.196 287.021 127.207 287.075 127.234C287.129 127.261 287.174 127.302 287.205 127.354C287.237 127.405 287.253 127.465 287.251 127.525L287.247 128.771Z" fill="white"/>
</g>
<path d="M367.527 232.309L372.284 239.467L374.423 246.211C374.458 246.327 374.517 246.434 374.596 246.526C374.675 246.618 374.772 246.692 374.881 246.745C374.99 246.797 375.109 246.826 375.23 246.831C375.351 246.835 375.471 246.814 375.584 246.77C375.72 246.724 375.842 246.644 375.94 246.539C376.037 246.434 376.107 246.306 376.142 246.167C376.578 244.402 378.146 237.903 377.772 237.395C377.398 236.887 373.25 229.518 373.25 229.518L367.527 232.309Z" fill="#07A39D"/>
<path opacity="0.6" d="M375.584 246.764L377.438 236.904L377.633 237.211C377.803 237.476 377.872 237.793 377.828 238.104C377.711 238.936 377.332 241.231 376.153 246.144C376.12 246.286 376.051 246.417 375.953 246.525C375.856 246.633 375.733 246.715 375.595 246.764H375.584Z" fill="#2C2C2C"/>
<g opacity="0.6">
<path opacity="0.6" d="M374.461 235.503C374.419 235.625 374.421 235.758 374.465 235.879C374.51 236 374.596 236.102 374.707 236.167C374.827 236.22 374.963 236.224 375.087 236.179C375.211 236.135 375.312 236.044 375.371 235.927C375.423 235.797 375.423 235.653 375.374 235.523C375.324 235.393 375.228 235.286 375.103 235.223C374.972 235.181 374.83 235.192 374.707 235.253C374.583 235.315 374.489 235.422 374.445 235.553" fill="white"/>
</g>
<path d="M375.233 242.543C374.915 242.423 374.577 242.368 374.239 242.381C373.906 242.443 373.587 242.568 373.301 242.749C373.301 242.749 373.34 242.621 373.496 242.487C373.705 242.32 373.957 242.218 374.222 242.191C374.487 242.16 374.755 242.208 374.992 242.331C375.171 242.425 375.249 242.526 375.233 242.543Z" fill="#263238"/>
<path d="M375.333 243.844C375.05 243.855 374.768 243.886 374.49 243.938C374.226 244.038 373.97 244.158 373.725 244.296C373.68 244.268 373.931 243.894 374.439 243.737C374.586 243.682 374.744 243.662 374.899 243.681C375.055 243.699 375.203 243.755 375.333 243.844Z" fill="#263238"/>
<path d="M375.411 240.684C374.973 240.67 374.534 240.691 374.099 240.745C373.677 240.855 373.264 240.999 372.865 241.175C373.178 240.832 373.604 240.614 374.066 240.561C374.515 240.444 374.991 240.487 375.411 240.684Z" fill="#263238"/>
<path d="M374.144 238.389C374.144 238.445 373.641 238.528 373.111 238.841C372.581 239.154 372.24 239.539 372.195 239.505C372.365 239.143 372.655 238.851 373.016 238.679C373.345 238.451 373.745 238.348 374.144 238.389Z" fill="#263238"/>
<path d="M372.798 236.251C372.407 236.348 372.032 236.498 371.682 236.697C371.376 236.944 371.104 237.229 370.872 237.546C370.872 237.546 370.872 237.401 370.978 237.194C371.124 236.933 371.329 236.71 371.576 236.541C371.823 236.372 372.106 236.263 372.402 236.223C372.659 236.2 372.798 236.228 372.798 236.251Z" fill="#263238"/>
<path d="M371.464 236.284C371.388 236.207 371.327 236.116 371.285 236.016C371.147 235.749 371.065 235.457 371.045 235.157C371.012 234.94 371.049 234.719 371.151 234.526C371.192 234.465 371.25 234.418 371.317 234.391C371.385 234.364 371.46 234.358 371.531 234.375C371.666 234.419 371.781 234.51 371.855 234.632C371.993 234.887 372.038 235.182 371.982 235.466C371.926 235.75 371.772 236.006 371.548 236.189C371.322 236.365 371.049 236.47 370.764 236.491C370.479 236.512 370.194 236.448 369.945 236.307C369.883 236.273 369.829 236.225 369.787 236.167C369.745 236.109 369.717 236.042 369.705 235.972C369.697 235.899 369.713 235.825 369.75 235.761C369.787 235.698 369.844 235.648 369.912 235.62C370.115 235.546 370.335 235.526 370.548 235.564C370.845 235.597 371.135 235.682 371.402 235.815C371.502 235.858 371.593 235.918 371.67 235.994C371.314 235.843 370.938 235.744 370.554 235.698C370.366 235.672 370.174 235.693 369.996 235.76C369.958 235.774 369.926 235.8 369.905 235.835C369.884 235.869 369.874 235.909 369.878 235.949C369.891 235.995 369.913 236.037 369.943 236.073C369.973 236.11 370.01 236.14 370.051 236.162C370.27 236.277 370.517 236.327 370.764 236.306C371.01 236.285 371.245 236.194 371.442 236.044C371.625 235.885 371.752 235.67 371.802 235.432C371.853 235.195 371.824 234.947 371.721 234.727C371.673 234.639 371.596 234.572 371.503 234.537C371.464 234.526 371.422 234.528 371.384 234.542C371.346 234.556 371.314 234.582 371.291 234.615C371.196 234.785 371.161 234.981 371.19 235.173C371.221 235.556 371.313 235.931 371.464 236.284Z" fill="#263238"/>
<path d="M363.005 236.401L362.447 243.587C362.447 243.587 369.576 246.027 369.604 247.367L355.646 247.333L356.037 236.105L363.005 236.401Z" fill="#07A39D"/>
<g opacity="0.6">
<path opacity="0.6" d="M358.165 242.811C358.029 242.844 357.91 242.927 357.832 243.044C357.755 243.161 357.724 243.303 357.746 243.442C357.778 243.578 357.86 243.697 357.976 243.776C358.092 243.854 358.233 243.886 358.372 243.866C358.516 243.828 358.64 243.737 358.722 243.613C358.803 243.488 358.836 243.337 358.813 243.19C358.769 243.049 358.671 242.931 358.54 242.862C358.409 242.792 358.256 242.778 358.115 242.822" fill="white"/>
</g>
<path opacity="0.6" d="M355.663 247.333L355.702 246.216L369.197 246.719C369.339 246.794 369.46 246.903 369.549 247.037C369.639 247.17 369.694 247.324 369.71 247.484L355.663 247.333Z" fill="#2C2C2C"/>
<path d="M362.687 243.526C362.687 243.593 362.341 243.609 361.995 243.816C361.649 244.022 361.436 244.302 361.403 244.274C361.369 244.246 361.459 243.849 361.877 243.609C362.296 243.369 362.704 243.464 362.687 243.526Z" fill="#263238"/>
<path d="M364.128 244.19C364.128 244.257 363.843 244.357 363.598 244.637C363.352 244.916 363.279 245.195 363.207 245.195C363.134 245.195 363.112 244.804 363.424 244.463C363.737 244.123 364.128 244.123 364.128 244.19Z" fill="#263238"/>
<path d="M364.893 245.965C364.831 245.965 364.748 245.63 364.937 245.262C365.127 244.893 365.451 244.759 365.496 244.821C365.54 244.882 365.317 245.072 365.166 245.379C365.016 245.686 364.96 245.965 364.893 245.965Z" fill="#263238"/>
<path d="M362.631 241.873C362.597 241.934 362.29 241.828 361.905 241.839C361.52 241.851 361.213 241.957 361.179 241.901C361.146 241.845 361.442 241.605 361.9 241.599C362.357 241.594 362.664 241.823 362.631 241.873Z" fill="#263238"/>
<g opacity="0.3">
<path opacity="0.3" d="M362.893 237.825L362.798 239.104L355.937 238.769L355.976 237.613L362.893 237.825Z" fill="black"/>
</g>
<path d="M362.715 240.421C362.484 240.475 362.243 240.466 362.017 240.393C361.766 240.336 361.522 240.25 361.291 240.136C361.155 240.071 361.024 239.994 360.9 239.908C360.822 239.862 360.752 239.803 360.694 239.734C360.654 239.682 360.633 239.618 360.633 239.553C360.633 239.488 360.654 239.424 360.694 239.372C360.73 239.325 360.777 239.288 360.83 239.263C360.883 239.238 360.942 239.225 361.001 239.226C361.088 239.231 361.174 239.246 361.257 239.271C361.405 239.315 361.549 239.371 361.687 239.439C361.92 239.556 362.133 239.708 362.318 239.891C362.631 240.203 362.731 240.449 362.703 240.449C362.676 240.449 362.525 240.254 362.207 239.991C362.018 239.842 361.812 239.717 361.592 239.617C361.465 239.557 361.333 239.511 361.196 239.478C361.051 239.433 360.928 239.427 360.883 239.478C360.839 239.528 360.883 239.511 360.883 239.556C360.924 239.607 360.973 239.65 361.029 239.684C361.145 239.765 361.266 239.84 361.391 239.908C361.604 240.024 361.826 240.121 362.056 240.198C362.28 240.258 362.5 240.332 362.715 240.421Z" fill="#263238"/>
<path d="M362.62 240.516C362.496 240.312 362.442 240.073 362.464 239.835C362.463 239.421 362.573 239.015 362.782 238.657C362.821 238.564 362.885 238.483 362.967 238.423C363.048 238.363 363.145 238.326 363.245 238.317C363.307 238.322 363.366 238.345 363.416 238.381C363.466 238.417 363.506 238.466 363.53 238.523C363.559 238.608 363.58 238.696 363.592 238.786C363.615 238.996 363.597 239.209 363.537 239.412C363.478 239.615 363.379 239.805 363.245 239.969C362.955 240.315 362.687 240.388 362.687 240.366C362.687 240.343 362.91 240.209 363.134 239.869C363.259 239.672 363.343 239.451 363.379 239.221C363.399 239.086 363.399 238.949 363.379 238.813C363.379 238.663 363.318 238.545 363.257 238.557C363.195 238.568 363.067 238.657 363.005 238.774C362.931 238.893 362.868 239.018 362.816 239.148C362.729 239.37 362.674 239.603 362.654 239.841C362.598 240.248 362.659 240.505 362.62 240.516Z" fill="#263238"/>
<path d="M368.109 177.293C368.109 177.293 370.671 182.546 371.341 186.293C371.531 187.353 364.005 241.209 364.005 241.209L355.105 240.874L359.276 190.759L357.791 180.709L368.109 177.293Z" fill="#263238"/>
<path d="M346.49 180.548C346.428 184.185 346.615 187.823 347.048 191.435C347.707 196.716 349.215 202.729 349.706 206.091C350.789 213.527 352.922 214.934 352.922 214.934L369.995 236.781L376.695 230.757L361.62 206.677C361.62 206.677 357.612 179.956 357.751 180.676C357.891 181.396 346.49 180.548 346.49 180.548Z" fill="#263238"/>
<path d="M353.279 215.258C353.328 215.338 353.382 215.415 353.441 215.487L353.927 216.112L355.719 218.424C357.232 220.395 359.292 223.097 361.576 226.084C363.859 229.071 365.936 231.784 367.477 233.716C368.242 234.682 368.873 235.458 369.32 235.988L369.833 236.591C369.891 236.665 369.954 236.734 370.023 236.798C369.977 236.716 369.923 236.639 369.861 236.569L369.376 235.938L367.583 233.632L361.727 225.967C359.449 222.968 357.366 220.266 355.825 218.34C355.06 217.368 354.429 216.598 353.988 216.068L353.469 215.459C353.413 215.386 353.349 215.318 353.279 215.258Z" fill="#455A64"/>
<path d="M351.376 184.64C351.366 184.94 351.283 185.233 351.135 185.494C350.538 186.813 349.441 187.841 348.087 188.353C347.815 188.476 347.52 188.539 347.222 188.537C348.119 188.157 348.953 187.643 349.695 187.013C350.374 186.313 350.941 185.513 351.376 184.64Z" fill="#455A64"/>
<path d="M369.8 181.592C369.392 181.778 368.939 181.842 368.495 181.776C368.051 181.711 367.636 181.519 367.299 181.223C367.338 181.15 367.857 181.391 368.538 181.485C369.219 181.58 369.783 181.513 369.8 181.592Z" fill="#455A64"/>
<path d="M360.191 189.017C360.22 189.135 360.24 189.254 360.253 189.375C360.286 189.631 360.325 189.972 360.381 190.402C360.482 191.323 360.627 192.635 360.811 194.232C361.157 197.515 361.632 202.048 362.179 207.263V207.202L364.652 211.155L373.245 224.984C374.322 226.743 375.199 228.172 375.819 229.194L376.489 230.333C376.575 230.463 376.647 230.601 376.706 230.746C376.608 230.624 376.518 230.495 376.438 230.361L375.701 229.244L373.049 225.084C370.816 221.539 367.762 216.676 364.384 211.305L361.917 207.347V207.313C361.414 202.115 360.967 197.56 360.649 194.271L360.303 190.43C360.269 190 360.242 189.659 360.225 189.397C360.198 189.272 360.187 189.145 360.191 189.017Z" fill="#455A64"/>
<path d="M357.595 142.085L362.921 143.793L363.323 155.088C363.323 155.088 366.204 168.359 366.829 170.034C367.563 172.041 368.107 174.112 368.454 176.22C368.454 176.22 367.427 183.713 359.94 184.595C352.453 185.477 345.485 181.178 345.485 181.178C345.485 181.178 342.989 170.012 340.7 159.996C338.523 150.465 340.293 144.782 340.293 144.782L348.494 141.834L357.595 142.085Z" fill="#07A39D"/>
<path d="M361.552 148.372L356.658 148.965L356.81 150.223L361.705 149.631L361.552 148.372Z" fill="#FAFAFA"/>
<path d="M349.114 129.138L348.869 142.867C348.851 143.949 349.244 144.998 349.97 145.801C350.695 146.604 351.699 147.102 352.777 147.194C353.359 147.245 353.945 147.177 354.499 146.992C355.053 146.808 355.564 146.512 355.999 146.123C356.435 145.734 356.786 145.259 357.03 144.729C357.275 144.199 357.408 143.624 357.422 143.04C357.422 141.734 357.467 140.662 357.467 140.662C357.467 140.662 360.817 140.438 361.146 137.144C361.342 135.235 361.392 130.88 361.403 127.536C361.407 126.446 361.002 125.395 360.268 124.591C359.534 123.786 358.524 123.287 357.439 123.192L355.446 123.019C354.625 122.993 353.808 123.133 353.042 123.429C352.277 123.725 351.578 124.171 350.988 124.741C350.398 125.312 349.928 125.995 349.606 126.75C349.284 127.505 349.117 128.317 349.114 129.138Z" fill="#FFBE9D"/>
<path d="M357.456 140.661C355.928 140.516 354.475 139.935 353.269 138.986C353.269 138.986 354.117 141.482 357.439 141.476L357.456 140.661Z" fill="#EB996E"/>
<path d="M360.471 130.891C360.409 130.947 360.074 130.651 359.566 130.606C359.058 130.562 358.667 130.785 358.617 130.718C358.567 130.651 358.662 130.578 358.835 130.478C359.066 130.343 359.333 130.285 359.6 130.31C359.864 130.334 360.115 130.442 360.314 130.617C360.459 130.746 360.504 130.863 360.471 130.891Z" fill="#263238"/>
<path d="M355.105 131.109C355.095 131.232 355.037 131.346 354.944 131.427C354.852 131.508 354.731 131.55 354.608 131.544C354.547 131.544 354.488 131.532 354.432 131.509C354.376 131.485 354.326 131.451 354.284 131.408C354.242 131.365 354.209 131.314 354.187 131.257C354.165 131.201 354.154 131.141 354.155 131.081C354.165 130.958 354.223 130.844 354.316 130.762C354.408 130.681 354.529 130.639 354.652 130.645C354.713 130.645 354.772 130.657 354.828 130.681C354.884 130.704 354.934 130.739 354.976 130.782C355.018 130.825 355.051 130.876 355.073 130.932C355.095 130.988 355.106 131.048 355.105 131.109Z" fill="#263238"/>
<path d="M360.018 131.555C360.008 131.678 359.95 131.793 359.858 131.874C359.765 131.955 359.644 131.997 359.521 131.991C359.461 131.989 359.402 131.976 359.347 131.952C359.292 131.927 359.242 131.893 359.201 131.849C359.159 131.805 359.127 131.754 359.105 131.698C359.083 131.642 359.073 131.582 359.074 131.522C359.083 131.398 359.14 131.283 359.233 131.202C359.326 131.12 359.448 131.079 359.571 131.086C359.632 131.086 359.692 131.099 359.748 131.122C359.803 131.146 359.853 131.181 359.895 131.225C359.937 131.269 359.969 131.321 359.991 131.378C360.012 131.434 360.021 131.495 360.018 131.555Z" fill="#263238"/>
<path d="M355.535 130.455C355.473 130.511 355.138 130.215 354.63 130.171C354.122 130.126 353.726 130.349 353.676 130.282C353.625 130.215 353.72 130.143 353.893 130.042C354.124 129.909 354.391 129.85 354.657 129.874C354.923 129.898 355.175 130.004 355.378 130.176C355.524 130.31 355.568 130.427 355.535 130.455Z" fill="#263238"/>
<path d="M357.042 134.38C357.322 134.32 357.609 134.293 357.896 134.302C358.03 134.302 358.153 134.302 358.181 134.202C358.206 134.069 358.188 133.933 358.131 133.811C358.036 133.481 357.935 133.146 357.835 132.789C357.552 131.922 357.341 131.033 357.204 130.132C357.553 130.973 357.835 131.842 358.047 132.728C358.142 133.091 358.237 133.431 358.326 133.755C358.385 133.921 358.385 134.103 358.326 134.269C358.303 134.313 358.271 134.351 358.231 134.381C358.192 134.411 358.146 134.432 358.097 134.442C358.023 134.45 357.948 134.45 357.874 134.442C357.595 134.456 357.316 134.435 357.042 134.38Z" fill="#263238"/>
<path d="M355.518 134.598C355.602 134.598 355.557 135.156 355.993 135.586C356.428 136.016 357.02 136.011 357.02 136.083C357.02 136.156 356.875 136.184 356.629 136.167C356.305 136.141 356.001 136.003 355.769 135.776C355.546 135.56 355.415 135.266 355.406 134.955C355.406 134.721 355.484 134.592 355.518 134.598Z" fill="#263238"/>
<path d="M355.814 128.814C355.747 128.948 355.256 128.814 354.647 128.859C354.039 128.904 353.531 128.998 353.48 128.859C353.43 128.719 353.547 128.675 353.754 128.557C354.026 128.414 354.328 128.338 354.636 128.334C354.944 128.325 355.25 128.388 355.529 128.518C355.736 128.636 355.836 128.753 355.814 128.814Z" fill="#263238"/>
<path d="M360.532 129.428C360.432 129.54 360.091 129.389 359.672 129.345C359.254 129.3 358.891 129.345 358.818 129.227C358.746 129.11 358.852 129.054 359.019 128.959C359.239 128.847 359.488 128.802 359.733 128.831C359.979 128.86 360.21 128.961 360.398 129.121C360.538 129.278 360.577 129.378 360.532 129.428Z" fill="#263238"/>
<path d="M350.008 131.712C349.952 131.684 347.775 130.841 347.669 133.107C347.563 135.374 349.84 135.033 349.852 134.966C349.863 134.9 350.008 131.712 350.008 131.712Z" fill="#FFBE9D"/>
<path d="M349.209 134.068C349.209 134.068 349.165 134.095 349.098 134.123C349.002 134.159 348.897 134.159 348.802 134.123C348.661 134.023 348.55 133.886 348.479 133.728C348.409 133.57 348.381 133.397 348.4 133.225C348.407 133.031 348.455 132.841 348.539 132.666C348.567 132.598 348.61 132.536 348.666 132.487C348.721 132.438 348.786 132.402 348.858 132.381C348.903 132.372 348.951 132.379 348.992 132.401C349.033 132.424 349.065 132.46 349.081 132.504C349.081 132.571 349.081 132.616 349.081 132.616C349.081 132.616 349.131 132.582 349.12 132.488C349.11 132.431 349.08 132.379 349.036 132.342C348.978 132.291 348.902 132.265 348.824 132.27C348.73 132.284 348.642 132.321 348.567 132.379C348.491 132.437 348.432 132.512 348.394 132.599C348.285 132.79 348.226 133.005 348.221 133.225C348.199 133.425 348.236 133.628 348.328 133.808C348.421 133.988 348.564 134.136 348.74 134.235C348.8 134.255 348.864 134.262 348.926 134.255C348.989 134.248 349.049 134.228 349.103 134.196C349.198 134.123 349.215 134.073 349.209 134.068Z" fill="#EB996E"/>
<path d="M348.757 131.511C348.974 131.515 349.184 131.578 349.367 131.693C349.55 131.808 349.698 131.971 349.796 132.164C349.913 132.499 349.913 132.867 350.03 133.202C350.148 133.537 350.455 133.861 350.806 133.805C350.927 133.78 351.038 133.724 351.13 133.641C351.221 133.559 351.289 133.454 351.326 133.336C351.395 133.099 351.418 132.851 351.393 132.605C351.354 131.539 351.225 130.472 351.275 129.412C351.287 128.337 351.613 127.289 352.213 126.397C352.522 125.955 352.945 125.606 353.437 125.386C353.928 125.166 354.47 125.083 355.005 125.146C355.703 125.263 356.311 125.704 356.998 125.849C357.408 125.94 357.834 125.937 358.243 125.84C358.652 125.744 359.034 125.556 359.36 125.291C359.444 125.224 359.818 125.023 359.818 125.023C359.827 124.771 359.765 124.521 359.639 124.303C358.372 122.902 355.909 122.321 354.056 122.628C353.107 122.774 352.202 123.125 351.403 123.656C350.603 124.187 349.929 124.886 349.427 125.704C348.489 127.351 348.512 129.752 348.791 131.522" fill="#DF952A"/>
<path d="M361.805 126.972C361.605 127.29 361.325 127.55 360.992 127.727C360.66 127.903 360.288 127.989 359.912 127.977C359.16 127.942 358.421 127.766 357.735 127.457C356.646 127.083 355.524 126.816 354.385 126.659C354.273 126.659 354.139 126.659 354.089 126.542C354.038 126.424 354.161 126.268 354.284 126.184C355.339 125.503 357.757 125.241 359.013 125.297C359.643 125.31 360.259 125.484 360.802 125.803C361.345 126.121 361.798 126.574 362.117 127.117" fill="#DF952A"/>
<path d="M361.475 127.044C360.821 126.22 359.872 125.683 358.829 125.548C356.826 125.38 354.816 125.767 353.019 126.667C351.223 127.568 349.709 128.946 348.645 130.651C348.443 129.689 348.342 128.708 348.344 127.725C348.4 127.05 349.159 123.086 353.369 122.192C353.385 122.181 359.795 120.344 361.475 127.044Z" fill="#07A39D"/>
<path d="M349.086 129.797C350.571 127.954 352.44 126.456 354.563 125.408C357.054 124.273 359.681 123.464 362.379 123.002C363.072 122.839 363.792 122.825 364.49 122.963C364.837 123.039 365.156 123.211 365.409 123.46C365.663 123.709 365.842 124.024 365.925 124.37C366.064 125.241 364.428 126.43 363.691 126.882C362.951 127.287 362.189 127.65 361.408 127.971C361.408 127.971 361.57 126.391 359.057 125.838C355.624 125.085 349.086 129.797 349.086 129.797Z" fill="#00857F"/>
<path d="M364.931 123.074C364.693 123.024 364.453 122.987 364.211 122.963C363.544 122.938 362.876 122.983 362.218 123.097C360.039 123.464 357.906 124.069 355.859 124.9C353.797 125.693 351.903 126.868 350.275 128.362C349.79 128.817 349.362 129.331 349.003 129.892C348.757 130.293 348.662 130.539 348.64 130.528C348.617 130.517 348.64 130.461 348.684 130.344C348.745 130.169 348.82 129.999 348.908 129.836C349.235 129.239 349.649 128.693 350.136 128.217C351.744 126.651 353.655 125.431 355.753 124.632C357.818 123.789 359.981 123.204 362.19 122.89C362.863 122.796 363.546 122.782 364.222 122.851C364.414 122.866 364.603 122.911 364.781 122.985C364.881 123.035 364.937 123.063 364.931 123.074Z" fill="#263238"/>
<path d="M356.78 123.951C357.6 123.602 358.471 123.389 359.359 123.32C359.165 123.138 358.949 122.981 358.717 122.851C358.025 122.906 357.347 123.069 356.707 123.337L356.78 123.951Z" fill="#FAFAFA"/>
<path d="M362.922 143.793C362.922 143.793 366.222 145.775 367.215 147.54C368.209 149.304 373.491 162.179 373.273 164.289C373.055 166.4 368.097 167.701 368.097 167.701L362.922 161.001L365.289 159.588L362.922 155.027V143.793Z" fill="#07A39D"/>
<path d="M368.108 167.684C368.108 167.684 356.116 170.085 351.761 164.892L353.023 160.509C353.023 160.509 360.945 162.385 363.424 161.581L368.108 167.684Z" fill="#FFBE9D"/>
<path d="M369.348 157.031C369.392 157.121 367.941 157.729 366.428 158.885C364.915 160.041 363.96 161.291 363.882 161.23C364.018 160.917 364.207 160.63 364.44 160.381C364.967 159.741 365.565 159.162 366.221 158.656C366.882 158.154 367.595 157.725 368.348 157.377C368.66 157.207 368.998 157.09 369.348 157.031Z" fill="#263238"/>
<path d="M365.501 159.426C365.073 158.75 364.712 158.034 364.423 157.288C364.041 156.586 363.712 155.857 363.44 155.105C363.967 155.718 364.388 156.414 364.685 157.165C365.062 157.877 365.336 158.638 365.501 159.426Z" fill="#263238"/>
<path d="M363.323 154.005C363.291 153.375 363.194 152.75 363.033 152.14C362.931 151.516 362.768 150.902 362.547 150.309C362.681 151.564 362.941 152.802 363.323 154.005Z" fill="#263238"/>
<path d="M341.795 145.468C342.024 145.708 345.318 147.891 346.418 151.61C347.517 155.328 348.729 159.209 348.729 159.209L353.022 159.767L350.599 169.671C348.96 169.419 347.394 168.816 346.008 167.905C344.621 166.993 343.447 165.795 342.565 164.39C340.649 161.051 339.099 157.515 337.942 153.843C337.942 153.843 338.305 141.817 341.795 145.468Z" fill="#07A39D"/>
<path d="M351.549 159.571C351.549 159.571 349.729 155.496 349.483 155.44C349.237 155.384 345.725 154.15 345.725 154.15C345.618 154.436 345.618 154.752 345.725 155.038L344.458 155.2C344.458 155.2 344.648 155.976 345.078 156.082L344.62 156.489C344.849 156.792 345.143 157.04 345.48 157.215C345.609 157.279 345.751 157.313 345.896 157.313C346.04 157.313 346.182 157.279 346.312 157.215C346.312 157.215 346.155 157.506 346.87 157.963C347.585 158.421 348.83 159.08 348.83 159.08L351.549 159.571Z" fill="#FFBE9D"/>
<path d="M348.835 159.102C348.835 159.102 347.59 158.421 346.875 157.986C346.255 157.595 346.272 157.327 346.317 157.249C346.189 157.307 346.05 157.337 345.909 157.337C345.769 157.337 345.63 157.307 345.502 157.249C345.164 157.07 344.869 156.82 344.636 156.517L345.055 156.076C344.636 155.954 344.452 155.222 344.446 155.189L345.708 155.027C345.607 154.741 345.607 154.43 345.708 154.145C345.742 154.145 349.231 155.384 349.471 155.434C349.711 155.485 351.464 159.404 351.542 159.571L348.835 159.102ZM345.73 155.032L344.463 155.194C344.463 155.284 344.681 155.965 345.077 156.065L344.614 156.473C344.839 156.772 345.129 157.017 345.462 157.187C345.591 157.25 345.732 157.283 345.876 157.283C346.019 157.283 346.16 157.25 346.289 157.187V157.221C346.289 157.221 346.144 157.511 346.847 157.958C347.551 158.405 348.762 159.075 348.807 159.075L351.503 159.549C350.867 158.137 349.633 155.479 349.449 155.44C349.265 155.401 345.887 154.217 345.697 154.15C345.597 154.438 345.609 154.753 345.73 155.032Z" fill="#EB996E"/>
<path d="M345.837 155.049C346.579 155.409 347.348 155.71 348.137 155.948C348.461 156.065 348.779 156.149 349.03 156.272C349.255 156.378 349.439 156.555 349.555 156.775C349.767 157.154 349.846 157.428 349.879 157.417C349.866 157.168 349.797 156.926 349.678 156.708C349.56 156.455 349.365 156.248 349.12 156.116C348.822 155.982 348.516 155.866 348.204 155.77C347.433 155.473 346.642 155.232 345.837 155.049Z" fill="#EB996E"/>
<path d="M345.016 156.077C345.211 156.193 345.427 156.271 345.652 156.306C346.054 156.417 346.624 156.507 347.227 156.668C347.741 156.796 348.224 157.024 348.65 157.338C348.974 157.59 349.114 157.807 349.142 157.791C349.064 157.57 348.924 157.376 348.74 157.232C348.318 156.87 347.817 156.612 347.277 156.479C346.657 156.311 346.082 156.244 345.68 156.172C345.463 156.115 345.24 156.084 345.016 156.077Z" fill="#EB996E"/>
<path d="M348.238 157.942C348.031 157.662 347.733 157.465 347.395 157.383C347.076 157.24 346.719 157.206 346.379 157.288C346.379 157.35 346.826 157.378 347.334 157.562C347.842 157.746 348.205 157.986 348.238 157.942Z" fill="#EB996E"/>
<path d="M352.654 160.822L363.48 155.362L365.462 159.399C365.462 159.399 355.485 169.286 350.812 169.158" fill="#FFBE9D"/>
<path d="M346.077 149.377C346.093 149.65 346.142 149.92 346.222 150.181C346.34 150.666 346.507 151.336 346.708 152.073C346.909 152.81 347.099 153.48 347.266 153.96C347.328 154.224 347.422 154.479 347.546 154.72C347.526 154.449 347.477 154.182 347.4 153.921C347.283 153.436 347.116 152.766 346.915 152.023C346.714 151.281 346.524 150.622 346.356 150.147C346.293 149.88 346.2 149.622 346.077 149.377Z" fill="#263238"/>
<path d="M346.546 162.815C346.579 162.815 346.674 162.318 346.925 161.542C347.068 161.092 347.287 160.669 347.573 160.292C347.916 159.844 348.41 159.537 348.963 159.426C349.541 159.4 350.12 159.466 350.677 159.622L352.095 159.907C352.273 159.93 352.448 159.975 352.615 160.041C352.733 160.093 352.827 160.189 352.877 160.309C352.899 160.36 352.911 160.415 352.911 160.47C352.911 160.526 352.899 160.581 352.877 160.632C352.877 160.632 353.028 160.543 352.966 160.286C352.945 160.213 352.908 160.145 352.859 160.086C352.81 160.028 352.75 159.98 352.682 159.946C352.504 159.863 352.316 159.805 352.123 159.773L350.711 159.449C350.134 159.277 349.531 159.205 348.93 159.237C348.322 159.356 347.781 159.701 347.417 160.202C347.126 160.599 346.911 161.046 346.78 161.52C346.689 161.836 346.616 162.156 346.562 162.48C346.54 162.591 346.534 162.704 346.546 162.815Z" fill="#263238"/>
<path d="M345.056 160.638C345.351 160.115 345.748 159.656 346.223 159.287C346.747 158.974 347.31 158.73 347.898 158.561C347.71 158.531 347.519 158.546 347.339 158.606C346.904 158.696 346.492 158.875 346.128 159.13C345.759 159.387 345.455 159.725 345.24 160.119C345.134 160.273 345.071 160.452 345.056 160.638Z" fill="#263238"/>
<path d="M337.942 153.844C337.942 153.844 337.942 153.916 337.998 154.056C338.054 154.195 338.115 154.407 338.199 154.647C338.383 155.206 338.635 155.92 338.947 156.819C339.26 157.718 339.64 158.835 340.176 160.007C340.712 161.18 341.343 162.442 342.107 163.72C342.822 164.931 343.733 166.014 344.804 166.925C345.677 167.67 346.655 168.281 347.707 168.739C348.42 169.046 349.172 169.255 349.941 169.359C350.148 169.39 350.357 169.411 350.566 169.42C350.711 169.42 350.784 169.42 350.784 169.42C350.784 169.42 350.488 169.387 349.952 169.292C349.201 169.157 348.47 168.93 347.774 168.617C345.478 167.556 343.562 165.815 342.286 163.631C341.527 162.363 340.913 161.085 340.349 159.94C339.785 158.796 339.422 157.707 339.081 156.78C338.741 155.853 338.478 155.133 338.277 154.625L338.043 154.067C338.017 153.989 337.984 153.914 337.942 153.844Z" fill="#263238"/>
<path d="M341.047 145.703C341.047 145.759 341.873 146.06 342.817 146.624C343.76 147.188 344.436 147.774 344.492 147.741C343.579 146.736 342.384 146.03 341.064 145.714L341.047 145.703Z" fill="#263238"/>
<path d="M349.26 172.011C349.438 172.12 349.624 172.213 349.818 172.29C350.002 172.379 350.226 172.48 350.488 172.58C350.75 172.681 351.046 172.815 351.392 172.921C352.182 173.202 352.987 173.437 353.804 173.625C354.808 173.846 355.824 174.006 356.847 174.105C357.872 174.189 358.902 174.208 359.929 174.161C360.767 174.121 361.602 174.034 362.43 173.898C362.782 173.848 363.1 173.775 363.374 173.719C363.648 173.664 363.893 173.602 364.083 173.552C364.286 173.507 364.486 173.447 364.68 173.373C364.473 173.394 364.268 173.43 364.066 173.479C363.876 173.518 363.636 173.569 363.357 173.613C363.078 173.658 362.76 173.725 362.408 173.764C361.583 173.883 360.751 173.957 359.918 173.987C358.899 174.021 357.88 173.995 356.864 173.909C355.849 173.815 354.841 173.662 353.844 173.451C353.03 173.274 352.227 173.054 351.437 172.793C351.091 172.692 350.795 172.575 350.527 172.48C350.259 172.385 350.036 172.296 349.852 172.223C349.659 172.139 349.462 172.068 349.26 172.011Z" fill="#263238"/>
<path d="M358.053 177.633C358.804 177.536 359.541 177.349 360.247 177.075C360.973 176.867 361.67 176.57 362.324 176.193C362.324 176.142 361.364 176.5 360.186 176.89C359.008 177.281 358.042 177.583 358.053 177.633Z" fill="#263238"/>
<g opacity="0.3">
<path opacity="0.3" d="M366.316 167.98C363.842 168.469 361.3 168.507 358.812 168.091C357.908 167.818 356.963 167.704 356.021 167.756C355.273 167.938 354.551 168.212 353.871 168.572C352.586 169.1 351.191 169.301 349.809 169.158C348.428 169.015 347.103 168.531 345.954 167.751C346.358 168.522 346.941 169.186 347.654 169.686C348.367 170.187 349.189 170.509 350.052 170.626C351.779 170.845 353.533 170.689 355.194 170.168C356.183 169.846 357.206 169.64 358.243 169.554C359.56 169.521 360.85 169.951 362.151 169.973C363.677 170.017 365.176 169.564 366.422 168.683L366.316 167.98Z" fill="black"/>
</g>
<g opacity="0.3">
<path opacity="0.3" d="M362.028 176.578C361.473 177.51 360.707 178.298 359.791 178.88C358.876 179.462 357.837 179.821 356.757 179.928C356.291 179.986 355.818 179.948 355.367 179.816C355.141 179.75 354.932 179.638 354.751 179.487C354.57 179.336 354.423 179.15 354.317 178.94C354.818 178.618 355.372 178.39 355.953 178.264L361.966 176.617" fill="black"/>
</g>
<path d="M365.3 159.56C365.154 159.741 364.991 159.907 364.815 160.057C364.491 160.37 364.022 160.817 363.469 161.386C362.916 161.956 362.257 162.659 361.453 163.357C360.649 164.055 359.734 164.775 358.768 165.523C357.859 166.235 356.906 166.887 355.915 167.477C355.102 167.962 354.242 168.36 353.347 168.667C352.743 168.872 352.123 169.023 351.493 169.119C351.265 169.159 351.032 169.172 350.801 169.158C351.64 168.981 352.468 168.753 353.28 168.477C354.15 168.146 354.987 167.734 355.781 167.248C356.748 166.65 357.68 165.998 358.573 165.294C359.538 164.546 360.46 163.837 361.258 163.156C362.056 162.475 362.726 161.799 363.307 161.241C363.888 160.683 364.379 160.258 364.725 159.974C364.899 159.813 365.092 159.674 365.3 159.56Z" fill="#EB996E"/>
<defs>
<clipPath id="clip0">
<rect width="130" height="36.9437" fill="white" transform="translate(166 103)"/>
</clipPath>
</defs>
</svg>
