<svg width="130" height="38" viewBox="0 0 130 38" fill="none" xmlns="http://www.w3.org/2000/svg">
<path d="M128.431 6.8027C128.396 6.80024 128.36 6.80024 128.324 6.8027V5.66432C128.323 4.8152 127.984 4.00128 127.384 3.40128C126.783 2.80129 125.968 2.46429 125.119 2.46429H21.9341C21.9662 2.3444 21.9827 2.22089 21.9834 2.09678C21.9834 1.89078 21.9428 1.6868 21.864 1.49649C21.7852 1.30617 21.6696 1.13324 21.5239 0.987581C21.3783 0.84192 21.2054 0.726374 21.015 0.647543C20.8247 0.568711 20.6207 0.528137 20.4147 0.528137H8.87851C8.46285 0.52932 8.06455 0.694967 7.77062 0.988888C7.4767 1.28281 7.31106 1.68111 7.30987 2.09678C7.31274 2.22072 7.32927 2.34397 7.35917 2.46429H5.25719C4.40808 2.46429 3.59368 2.80129 2.99285 3.40128C2.39201 4.00128 2.05387 4.8152 2.05269 5.66432V15.856C1.89764 15.7987 1.73393 15.7684 1.56865 15.7664C1.36227 15.7664 1.15793 15.8071 0.967318 15.8862C0.776709 15.9653 0.603584 16.0813 0.457863 16.2274C0.312143 16.3735 0.196691 16.547 0.118123 16.7378C0.0395557 16.9287 -0.000583238 17.1331 6.4032e-06 17.3395V28.8757C0.00118896 29.2914 0.166836 29.6897 0.460757 29.9836C0.754678 30.2775 1.15298 30.4432 1.56865 30.4444C1.73347 30.4416 1.89682 30.4128 2.05269 30.3592V32.394C2.05387 33.2435 2.39187 34.0579 2.99257 34.6586C3.59328 35.2593 4.40767 35.5973 5.25719 35.5985H108.68C108.658 35.6986 108.648 35.8008 108.649 35.9032C108.649 36.3193 108.814 36.7183 109.108 37.0124C109.402 37.3066 109.801 37.4719 110.217 37.4719H121.749C122.165 37.4719 122.564 37.3066 122.858 37.0124C123.152 36.7183 123.318 36.3193 123.318 35.9032C123.318 35.8008 123.308 35.6986 123.286 35.5985H125.119C125.969 35.5973 126.783 35.2593 127.384 34.6586C127.985 34.0579 128.323 33.2435 128.324 32.394V21.5927H128.431C128.847 21.5916 129.245 21.4259 129.539 21.132C129.833 20.8381 129.999 20.4398 130 20.0241V8.37134C129.998 7.95604 129.832 7.55841 129.538 7.26475C129.244 6.97108 128.847 6.80505 128.431 6.8027ZM16.5828 20.1496H19.9531V22.5563H19.1957C19.1788 22.6259 19.1392 22.6879 19.0833 22.7325C19.0273 22.7771 18.958 22.8019 18.8864 22.8028H17.636C17.5644 22.8019 17.4952 22.7771 17.4392 22.7325C17.3832 22.6879 17.3437 22.6259 17.3268 22.5563H16.5828V20.1496ZM14.7273 24.9093C14.7265 24.9896 14.6957 25.0668 14.641 25.1256C14.5863 25.1845 14.5116 25.2208 14.4315 25.2275V25.5861H12.7194V28.571H9.34911V22.386H9.31773C9.23096 22.386 9.14774 22.3516 9.08639 22.2902C9.02503 22.2288 8.99056 22.1456 8.99056 22.0589V20.8174C8.99056 20.7306 9.02503 20.6474 9.08639 20.586C9.14774 20.5247 9.23096 20.4902 9.31773 20.4902H9.34911V20.1451H12.7194V23.009H14.4315V23.3317C14.5116 23.3384 14.5863 23.3747 14.641 23.4336C14.6957 23.4924 14.7265 23.5696 14.7273 23.6499V24.9093ZM20.2489 26.1553C20.249 26.239 20.217 26.3196 20.1595 26.3805C20.102 26.4413 20.0233 26.4778 19.9397 26.4824V28.571H16.5828V25.5861H14.8797V23.0135H16.5828H19.9531V24.5911C20.0364 24.5946 20.115 24.6301 20.1727 24.6902C20.2303 24.7504 20.2624 24.8305 20.2624 24.9138L20.2489 26.1553ZM107.685 20.1496H109.805V22.4891H107.703L107.685 20.1496ZM84.1509 12.6515C84.1509 12.5647 84.1853 12.4815 84.2467 12.4201C84.3081 12.3588 84.3913 12.3243 84.4781 12.3243V11.9613H87.8439V14.9148H89.2781C90.7168 14.9148 91.5549 14.2918 91.5549 13.2117C91.5549 12.1316 90.7168 11.5131 89.2781 11.5131H87.1627C87.1519 11.5887 87.1143 11.658 87.0567 11.7082C86.9991 11.7584 86.9253 11.7862 86.8489 11.7865H85.603C85.5261 11.7863 85.4517 11.7587 85.3934 11.7086C85.3351 11.6584 85.2965 11.5891 85.2848 11.5131H84.496V9.04362H89.5694C92.4916 9.04362 94.4725 10.2313 94.8938 12.3557H94.9521C94.9951 12.3557 95.0376 12.3642 95.0773 12.3806C95.117 12.397 95.1531 12.4211 95.1834 12.4515C95.2138 12.4819 95.2379 12.518 95.2544 12.5577C95.2708 12.5974 95.2793 12.6399 95.2793 12.6829V13.9333C95.2793 14.0201 95.2448 14.1033 95.1834 14.1646C95.1221 14.226 95.0389 14.2605 94.9521 14.2605C94.9254 14.2647 94.8981 14.2647 94.8714 14.2605C94.4232 16.3042 92.4378 17.4515 89.5694 17.4515H84.4781V14.2291C84.3913 14.2291 84.3081 14.1946 84.2467 14.1333C84.1853 14.0719 84.1509 13.9887 84.1509 13.9019V12.6515ZM81.0629 9.04362H83.1604V11.3652H81.0629V9.04362ZM83.3038 15.0986V17.4202H77.5715V15.0806L83.3038 15.0986ZM73.502 12.6515C73.502 12.5647 73.5365 12.4815 73.5979 12.4201C73.6592 12.3588 73.7424 12.3243 73.8292 12.3243V9.04362H80.6058V9.29908C80.6846 9.30887 80.7572 9.34702 80.8099 9.4064C80.8627 9.46578 80.8921 9.54233 80.8926 9.62177V10.8363C80.892 10.9153 80.8624 10.9913 80.8096 11.0499C80.7567 11.1086 80.6842 11.1458 80.6058 11.1546V11.3294H77.1054V12.1047H80.6237V12.1943C80.6985 12.2061 80.7667 12.2441 80.816 12.3016C80.8653 12.3591 80.8924 12.4323 80.8926 12.5081V13.7585C80.8926 13.8348 80.8656 13.9086 80.8164 13.9668C80.7671 14.0251 80.6989 14.064 80.6237 14.0767V14.1888H77.1054V15.0627V15.251C77.1835 15.2606 77.2555 15.2981 77.3082 15.3566C77.3609 15.415 77.3907 15.4905 77.3923 15.5692V16.8196C77.3917 16.8985 77.3621 16.9745 77.3093 17.0332C77.2564 17.0918 77.1839 17.129 77.1054 17.1378V17.3843H73.8203V14.2246C73.7335 14.2246 73.6503 14.1901 73.5889 14.1288C73.5275 14.0674 73.4931 13.9842 73.4931 13.8974L73.502 12.6515ZM76.4018 22.7535L75.2948 23.3362C75.2346 23.3673 75.1661 23.3784 75.0992 23.368C75.0323 23.3575 74.9705 23.3259 74.9228 23.2779L74.4029 23.5558C74.1747 23.1982 73.8569 22.9067 73.481 22.7101C73.1052 22.5135 72.6844 22.4188 72.2606 22.4353C71.0863 22.4353 70.2662 23.0538 70.1451 24.0891H69.4146C69.394 24.1543 69.3536 24.2114 69.2989 24.2523C69.2443 24.2933 69.1782 24.3162 69.1098 24.3177H67.8594C67.7903 24.3171 67.7232 24.2947 67.6677 24.2536C67.6121 24.2126 67.571 24.155 67.5502 24.0891H66.7121C66.8555 21.3642 69.0919 19.8583 72.3099 19.8583C74.5732 19.8583 76.3883 20.8443 77.1099 22.0992L76.5676 22.386C76.5851 22.458 76.5773 22.5339 76.5455 22.6008C76.5136 22.6677 76.4597 22.7217 76.3928 22.7535H76.4018ZM70.2303 9.04362H72.9194V9.29908C73.0018 9.30367 73.0794 9.33968 73.1361 9.39971C73.1928 9.45973 73.2243 9.53921 73.2242 9.62177V10.8363C73.2232 10.9181 73.1911 10.9965 73.1346 11.0556C73.078 11.1146 73.0011 11.15 72.9194 11.1546V11.4593H70.2303V9.04362ZM58.9944 9.04362H62.3468V11.3294H61.6252C61.6155 11.4074 61.578 11.4794 61.5196 11.5321C61.4611 11.5848 61.3856 11.6146 61.307 11.6162H60.0565C59.9779 11.6146 59.9024 11.5848 59.844 11.5321C59.7855 11.4794 59.748 11.4074 59.7383 11.3294H58.9944V9.04362ZM58.9944 11.7955H62.3468V13.7854C62.4276 13.791 62.5034 13.8269 62.5591 13.8858C62.6147 13.9448 62.6461 14.0225 62.647 14.1036V15.3585C62.6461 15.4396 62.6147 15.5173 62.5591 15.5763C62.5034 15.6352 62.4276 15.6711 62.3468 15.6767V17.4202H58.9944V11.7955ZM60.5406 22.9238V23.2062C60.6215 23.2118 60.6973 23.2477 60.7529 23.3066C60.8085 23.3656 60.8399 23.4434 60.8409 23.5244V24.7748C60.84 24.8564 60.8088 24.9347 60.7532 24.9943C60.6977 25.054 60.6218 25.0908 60.5406 25.0975V25.5771C58.0577 25.3216 55.9691 24.6807 55.9691 22.8028C55.9691 20.925 58.0263 19.8762 60.8185 19.8762C62.5048 19.8372 64.1711 20.2488 65.6454 21.0684L64.1171 22.9373C63.1187 22.3663 61.9814 22.0839 60.8319 22.1216C60.0969 22.1216 59.2767 22.1933 59.2767 22.516C59.2767 22.7266 59.6935 22.8252 60.5406 22.9059V22.9238ZM46.9741 9.04362H50.5192L54.275 13.0773V9.04362H57.5064V12.3019C57.584 12.3117 57.6555 12.3494 57.7074 12.4079C57.7594 12.4664 57.7883 12.5419 57.7887 12.6201V13.8706C57.7873 13.9485 57.7581 14.0235 57.7063 14.0818C57.6546 14.1402 57.5837 14.1781 57.5064 14.1888V17.4202H54.5618L50.1965 12.8442V12.8666L46.9741 9.4918V9.04362ZM46.9741 10.1596L47.9825 11.2128C48.0458 11.1715 48.1215 11.1534 48.1967 11.1615C48.2718 11.1697 48.3419 11.2037 48.3948 11.2576L49.2419 12.1809C49.2905 12.2326 49.3204 12.299 49.3269 12.3697C49.3334 12.4403 49.3161 12.5111 49.2777 12.5708L50.1965 13.5254V17.4157H46.9651L46.9741 10.1596ZM40.6547 15.0896C41.8065 15.0134 42.2816 14.1932 42.2816 13.1893V9.04362H45.634V10.9574C45.7172 10.9608 45.7959 10.9964 45.8535 11.0565C45.9112 11.1166 45.9433 11.1967 45.9433 11.2801V12.5305C45.9433 12.6138 45.9112 12.6939 45.8535 12.754C45.7959 12.8142 45.7172 12.8497 45.634 12.8532V13.4717C45.634 16.0442 43.8413 17.6443 40.6547 17.7025V15.0896ZM35.039 9.75175C35.0398 9.67021 35.0711 9.59193 35.1266 9.53224C35.1822 9.47255 35.258 9.43575 35.3392 9.42906V9.04362H38.6917V13.2072C38.6917 14.1888 39.1398 15 40.2065 15.0986V15.5468C40.2756 15.5654 40.3367 15.6061 40.3804 15.6628C40.4241 15.7195 40.4481 15.7889 40.4485 15.8605V17.1109C40.4471 17.1817 40.4227 17.2501 40.3791 17.3059C40.3354 17.3616 40.2749 17.4017 40.2065 17.4202V17.716C37.1051 17.6263 35.3392 16.0308 35.3392 13.4896V11.3249C35.2584 11.3172 35.1831 11.2801 35.1277 11.2206C35.0724 11.1611 35.0408 11.0834 35.039 11.0022V9.75175ZM26.5235 26.5452C26.5226 26.62 26.4958 26.6922 26.4476 26.7495C26.3993 26.8067 26.3327 26.8454 26.2591 26.8589V27.2488H24.5829L23.9957 28.5934H20.5044L23.1083 23.3586L23.0142 23.3317C22.9748 23.3123 22.9398 23.2851 22.9111 23.2518C22.8825 23.2186 22.8608 23.1799 22.8474 23.138C22.834 23.0962 22.8292 23.0521 22.8332 23.0084C22.8372 22.9647 22.85 22.9222 22.8708 22.8835L23.4355 21.7675C23.4549 21.7282 23.4821 21.6931 23.5154 21.6644C23.5486 21.6358 23.5873 21.6141 23.6292 21.6007C23.671 21.5874 23.7151 21.5825 23.7588 21.5865C23.8025 21.5906 23.845 21.6033 23.8837 21.6241C23.9079 21.638 23.9304 21.6545 23.9509 21.6734L24.6994 20.163H24.7263L25.0714 20.9205C25.1461 20.8936 25.228 20.8952 25.3016 20.925C25.3752 20.9547 25.4353 21.0106 25.4703 21.0818L25.9946 22.1933C26.0335 22.273 26.0393 22.3648 26.0107 22.4488C25.9822 22.5327 25.9216 22.602 25.8422 22.6415L26.2456 23.5379L25.5016 25.2006H26.2546V25.4292C26.3282 25.4427 26.3948 25.4814 26.4431 25.5386C26.4913 25.5959 26.5182 25.6681 26.519 25.7429L26.5235 26.5452ZM29.0109 28.571L28.4193 27.2264H26.6983V25.2006H27.496L26.4966 22.9597L25.2193 20.1227H28.3566L29.7683 22.9642C29.8073 22.9436 29.85 22.931 29.8939 22.9273C29.9379 22.9236 29.9821 22.9288 30.0239 22.9426C30.0658 22.9565 30.1044 22.9786 30.1375 23.0077C30.1706 23.0368 30.1975 23.0723 30.2165 23.1121L30.7499 24.2818C30.7714 24.3201 30.785 24.3624 30.7896 24.4061C30.7943 24.4497 30.79 24.4939 30.777 24.5359C30.764 24.5778 30.7425 24.6167 30.714 24.6501C30.6854 24.6835 30.6504 24.7107 30.6109 24.73L32.5381 28.6068L29.0109 28.571ZM36.751 21.8348C36.7506 21.9118 36.7221 21.9861 36.671 22.0438C36.6199 22.1015 36.5496 22.1387 36.4732 22.1485V22.4577V24.1429V24.4073C36.5504 24.4191 36.6208 24.4581 36.6718 24.5173C36.7227 24.5765 36.7508 24.6519 36.751 24.73V25.5323C36.7498 25.6096 36.7212 25.684 36.6703 25.7422C36.6195 25.8005 36.5496 25.8388 36.4732 25.8505V26.2673V28.5754H33.1028V25.0124C33.079 25.0149 33.0549 25.0149 33.0311 25.0124C32.9451 25.0124 32.8626 24.9785 32.8013 24.9181C32.7401 24.8578 32.7051 24.7757 32.7039 24.6897V23.4348C32.7051 23.3488 32.7401 23.2667 32.8013 23.2063C32.8626 23.1459 32.9451 23.1121 33.0311 23.1121C33.0549 23.1096 33.079 23.1096 33.1028 23.1121V20.1496H36.4507V20.2482C36.5272 20.2598 36.5971 20.2982 36.6479 20.3564C36.6988 20.4147 36.7274 20.4891 36.7286 20.5664L36.751 21.8348ZM39.8883 28.5575L37.997 26.2494H36.8989V24.1429H38.8709C39.5208 24.1429 39.9779 23.9278 39.9779 23.3003C39.9779 22.6729 39.5298 22.4577 38.8709 22.4577H36.8989V20.1496H39.1398C41.1074 20.1496 42.7567 20.8353 43.2273 22.3054H43.2542C43.3409 22.3054 43.4242 22.3398 43.4855 22.4012C43.5469 22.4625 43.5813 22.5458 43.5813 22.6325V23.8785C43.5813 23.9653 43.5469 24.0485 43.4855 24.1098C43.4242 24.1712 43.3409 24.2057 43.2542 24.2057C43.2363 24.2082 43.2182 24.2082 43.2004 24.2057C43.04 24.6141 42.7894 24.981 42.4673 25.279C42.1453 25.577 41.76 25.7984 41.3404 25.9267L43.6306 28.5844L39.8883 28.5575ZM55.391 24.8062C55.3894 24.8849 55.3596 24.9604 55.3069 25.0188C55.2542 25.0772 55.1822 25.1147 55.1041 25.1244C54.7232 27.3205 52.7153 28.5575 49.7259 28.5575H44.5853V23.1166H47.9556V26.0746H49.3988C50.8419 26.0746 51.6845 25.4471 51.6845 24.3625C51.6845 23.2779 50.8419 22.6549 49.3988 22.6549H47.1265C47.1056 22.7208 47.0645 22.7784 47.009 22.8195C46.9534 22.8605 46.8863 22.8829 46.8172 22.8835H45.5668C45.4983 22.8827 45.4319 22.8601 45.3771 22.819C45.3223 22.7779 45.282 22.7204 45.262 22.6549H44.5853V20.1496H49.6856C52.5181 20.1496 54.4677 21.2611 54.9876 23.2465H55.019C55.0619 23.2465 55.1045 23.255 55.1442 23.2714C55.1839 23.2879 55.2199 23.312 55.2503 23.3424C55.2807 23.3727 55.3048 23.4088 55.3212 23.4485C55.3377 23.4882 55.3461 23.5307 55.3461 23.5737L55.391 24.8062ZM66.2953 26.2942C66.2941 26.3802 66.2591 26.4623 66.1979 26.5226C66.1366 26.583 66.0541 26.6169 65.9681 26.6169H65.9098C65.4616 28.0018 63.8885 28.8578 61.2263 28.8578C59.2264 28.9355 57.2517 28.3905 55.5747 27.2981L57.1882 25.4426C58.3938 26.2059 59.795 26.6029 61.2218 26.5855C62.2123 26.5855 62.6784 26.4421 62.6784 26.1373C62.6784 25.8326 62.3602 25.716 60.9843 25.5995V22.9373H61.0694C63.3955 23.1345 65.1838 23.5199 65.7754 24.73C65.8196 24.7067 65.8688 24.6944 65.9188 24.6942C66.0048 24.6942 66.0873 24.728 66.1486 24.7884C66.2098 24.8488 66.2448 24.9309 66.246 25.0169L66.2953 26.2942ZM66.3311 15.6678C66.2443 15.6678 66.1611 15.6333 66.0998 15.5719C66.0384 15.5106 66.0039 15.4274 66.0039 15.3406V14.0857C66.0051 13.9997 66.0401 13.9176 66.1013 13.8572C66.1626 13.7968 66.2451 13.763 66.3311 13.763H66.4118V11.4773H63.2521V9.04362H69.7821V9.30805C69.8521 9.32583 69.9141 9.36625 69.9587 9.42299C70.0033 9.47973 70.0279 9.54962 70.0286 9.62177V10.8363C70.0277 10.9079 70.0029 10.9772 69.9583 11.0332C69.9137 11.0891 69.8517 11.1287 69.7821 11.1456V11.4593V17.4022H66.4342V15.6498C66.4005 15.6593 66.366 15.6653 66.3311 15.6678ZM72.1575 28.8623C69.0202 28.8623 66.7793 27.325 66.6762 24.5373H70.1048C70.1855 25.6309 71.0012 26.2852 72.2292 26.2852C72.6628 26.3045 73.0938 26.209 73.4786 26.0083C73.8634 25.8077 74.1885 25.5089 74.4208 25.1424L77.1099 26.5765C76.4063 27.8987 74.5642 28.8623 72.1799 28.8623H72.1575ZM82.6495 26.5452C82.6483 26.6174 82.6229 26.6871 82.5774 26.7431C82.5319 26.7992 82.4689 26.8384 82.3985 26.8544V27.2488H80.7357L80.1486 28.5934H76.6572L79.2657 23.3496H79.2029C79.1636 23.3302 79.1285 23.303 79.0998 23.2698C79.0712 23.2365 79.0495 23.1978 79.0361 23.156C79.0228 23.1141 79.0179 23.07 79.0219 23.0263C79.026 22.9826 79.0387 22.9401 79.0595 22.9014L79.6242 21.7855C79.6437 21.7461 79.6708 21.711 79.7041 21.6824C79.7374 21.6537 79.7761 21.6321 79.8179 21.6187C79.8597 21.6053 79.9038 21.6005 79.9475 21.6045C79.9913 21.6085 80.0337 21.6213 80.0724 21.642C80.0724 21.642 80.0993 21.6645 80.1127 21.6734L80.8522 20.181L81.2108 20.9743C81.2844 20.9508 81.3639 20.9541 81.4352 20.9837C81.5066 21.0132 81.5652 21.067 81.6007 21.1356L82.143 22.265C82.1643 22.3038 82.1774 22.3466 82.1814 22.3907C82.1854 22.4348 82.1804 22.4792 82.1665 22.5213C82.1526 22.5633 82.1302 22.602 82.1008 22.6351C82.0713 22.6681 82.0353 22.6947 81.9951 22.7132L82.3895 23.6096L81.6455 25.2678H82.394V25.4964C82.4648 25.5134 82.5279 25.5534 82.5733 25.6102C82.6188 25.667 82.644 25.7374 82.645 25.8101L82.6495 26.5452ZM85.1548 28.571L84.5632 27.2264H82.8691V25.2006H83.6713L82.6719 22.9597V22.9866L81.3945 20.1451H84.5318L85.957 23.009L85.9839 22.9866C86.0228 22.9653 86.0655 22.9523 86.1096 22.9482C86.1537 22.9442 86.1982 22.9492 86.2402 22.9631C86.2822 22.977 86.321 22.9994 86.354 23.0289C86.387 23.0583 86.4136 23.0943 86.4321 23.1345L86.9475 24.2818C86.9694 24.3208 86.9828 24.3639 86.9869 24.4083C86.9909 24.4528 86.9856 24.4976 86.9713 24.5399C86.9569 24.5822 86.9338 24.6209 86.9034 24.6537C86.8731 24.6865 86.8362 24.7125 86.7952 24.73L88.7134 28.5934L85.1548 28.571ZM92.9129 21.8482C92.9118 21.9249 92.8838 21.9987 92.8339 22.0569C92.7839 22.1151 92.7151 22.1538 92.6395 22.1664V22.4488V24.2415V24.3849C92.7151 24.3975 92.7839 24.4363 92.8339 24.4944C92.8838 24.5526 92.9118 24.6265 92.9129 24.7031V25.5054C92.9118 25.5821 92.8838 25.6559 92.8339 25.7141C92.7839 25.7722 92.7151 25.811 92.6395 25.8236V26.3614V28.5485H89.2781V25.0213H89.2422C89.1562 25.0214 89.0737 24.9875 89.0125 24.9271C88.9512 24.8667 88.9162 24.7846 88.9151 24.6987V23.4437C88.9162 23.3577 88.9512 23.2757 89.0125 23.2153C89.0737 23.1549 89.1562 23.121 89.2422 23.121H89.2781V20.1496H92.6619V20.293C92.7375 20.3038 92.8068 20.3414 92.857 20.399C92.9072 20.4566 92.935 20.5303 92.9353 20.6067L92.9129 21.8482ZM99.6849 23.8695C99.6849 23.9563 99.6504 24.0395 99.5891 24.1009C99.5277 24.1622 99.4445 24.1967 99.3577 24.1967C99.3414 24.1987 99.3248 24.1987 99.3084 24.1967C98.8602 25.6802 97.3588 26.3883 95.2255 26.3883H93.0876V24.2818H94.9476C95.5751 24.2818 96.0457 24.0309 96.0457 23.3855C96.0457 22.7401 95.5975 22.4891 94.9476 22.4891H93.0876V20.1496H95.2255C97.3454 20.1496 98.8603 20.8488 99.3039 22.3098H99.3577C99.4009 22.3092 99.4437 22.3173 99.4836 22.3335C99.5236 22.3497 99.5599 22.3738 99.5904 22.4043C99.6209 22.4348 99.645 22.4711 99.6612 22.5111C99.6775 22.5511 99.6855 22.5939 99.6849 22.637V23.8695ZM103.992 27.9435C103.991 28.0202 103.963 28.094 103.913 28.1522C103.863 28.2104 103.794 28.2491 103.719 28.2617V28.562H100.393V20.1496H107.219V20.302C107.294 20.3147 107.362 20.3536 107.412 20.4119C107.461 20.4701 107.488 20.5439 107.488 20.6202V21.8706C107.487 21.9461 107.459 22.0188 107.41 22.0762C107.361 22.1335 107.293 22.1718 107.219 22.1843V22.4891H103.71V23.269H107.25C107.334 23.2735 107.413 23.31 107.47 23.3709C107.528 23.4318 107.56 23.5124 107.559 23.5961V24.8466C107.56 24.9299 107.527 25.01 107.47 25.0701C107.412 25.1303 107.333 25.1658 107.25 25.1692V25.353H103.71V26.2494H103.741V26.4018C103.816 26.4134 103.885 26.4512 103.935 26.5087C103.985 26.5661 104.013 26.6393 104.014 26.7155L103.992 27.9435ZM109.895 28.562H104.189V26.2359H109.917L109.895 28.562ZM115.757 19.8493C117.443 19.811 119.109 20.2225 120.584 21.0415L119.078 22.9373C118.079 22.3663 116.942 22.0839 115.793 22.1216C115.058 22.1216 114.237 22.1933 114.237 22.516C114.237 22.8387 114.735 22.8656 115.761 22.9642V23.2241C115.842 23.2298 115.918 23.2656 115.974 23.3246C116.029 23.3835 116.061 23.4613 116.062 23.5423V24.7928C116.061 24.8743 116.029 24.9526 115.974 25.0123C115.918 25.072 115.842 25.1088 115.761 25.1155V25.6219C113.166 25.3844 110.93 24.7569 110.93 22.8208C110.93 20.8846 112.987 19.8583 115.779 19.8583L115.757 19.8493ZM121.247 26.2987C121.247 26.3843 121.213 26.4663 121.152 26.5268C121.092 26.5874 121.01 26.6214 120.924 26.6214C120.884 26.6213 120.845 26.6137 120.808 26.5989C120.36 27.9928 118.786 28.8399 116.115 28.8399C114.135 28.9044 112.182 28.3583 110.522 27.2757L112.135 25.4202C113.341 26.1835 114.742 26.5805 116.169 26.5631C117.155 26.5631 117.626 26.4197 117.626 26.1149C117.626 25.8101 117.339 25.716 116.191 25.5995V22.9687C118.432 23.1703 120.171 23.5692 120.736 24.7973C120.783 24.7599 120.84 24.7367 120.9 24.7305C120.96 24.7242 121.021 24.7351 121.075 24.7618C121.129 24.7886 121.174 24.8302 121.205 24.8816C121.237 24.9331 121.253 24.9925 121.251 25.0527L121.247 26.2987Z" fill="white"/>
</svg>
