<svg width="48" height="30" viewBox="0 0 48 30" fill="none" xmlns="http://www.w3.org/2000/svg">
<rect width="48" height="30" rx="3" fill="white"/>
<path fill-rule="evenodd" clip-rule="evenodd" d="M10.6781 27.7404H10.5935C10.5935 27.6973 10.5723 27.6325 10.5723 27.6107C10.5723 27.5892 10.5723 27.5461 10.5087 27.5461H10.3815V27.7404H10.3179V27.2867H10.5087C10.5935 27.2867 10.6569 27.3085 10.6569 27.3946C10.6569 27.4595 10.6357 27.4813 10.6147 27.5026C10.6359 27.5244 10.6569 27.546 10.6569 27.5892V27.6755C10.6569 27.6973 10.6569 27.6973 10.6781 27.6973V27.7404ZM10.5935 27.4164C10.5935 27.3515 10.5511 27.3515 10.5299 27.3515H10.3815V27.4813H10.5087C10.5511 27.4813 10.5935 27.4595 10.5935 27.4164ZM10.9537 27.5027C10.9537 27.2436 10.7419 27.0272 10.4663 27.0272C10.212 27.0272 10 27.2436 10 27.5027C10 27.7836 10.212 28 10.4663 28C10.7417 27.9998 10.9537 27.7836 10.9537 27.5027ZM10.8901 27.5027C10.8901 27.7406 10.6995 27.9134 10.4663 27.9134C10.2331 27.9134 10.0636 27.7404 10.0636 27.5027C10.0636 27.2867 10.2332 27.0921 10.4663 27.0921C10.6993 27.0921 10.8901 27.2867 10.8901 27.5027ZM37 18.7714C37 19.4199 36.5973 19.7221 35.8767 19.7221H34.4994V19.0736H35.8767C36.0039 19.0736 36.1099 19.0522 36.1524 19.0091C36.1947 18.9657 36.2371 18.9008 36.2371 18.8145C36.2371 18.7279 36.1948 18.6415 36.1524 18.5985C36.1099 18.5551 36.0252 18.5336 35.898 18.5336C35.2413 18.5118 34.4146 18.5551 34.4146 17.6042C34.4146 17.1718 34.69 16.6963 35.4318 16.6963H36.8516V17.3448H35.5376C35.4107 17.3448 35.3258 17.3448 35.2621 17.3879C35.1985 17.4527 35.1563 17.5176 35.1563 17.6257C35.1563 17.7338 35.2199 17.7987 35.3046 17.8421C35.3895 17.8635 35.4743 17.8851 35.5803 17.8851H35.9616C36.3643 17.8851 36.6187 17.9715 36.7883 18.123C36.9152 18.2741 37 18.4689 37 18.7714ZM34.0118 18.123C33.8422 17.9715 33.5877 17.8851 33.1851 17.8851H32.8038C32.6979 17.8851 32.613 17.8634 32.5283 17.8421C32.4434 17.7987 32.3801 17.7338 32.3801 17.6257C32.3801 17.5176 32.4011 17.4527 32.4859 17.3879C32.5495 17.3448 32.6342 17.3448 32.7614 17.3448H34.0754V16.6963H32.6555C31.8925 16.6963 31.638 17.1718 31.638 17.6042C31.638 18.5549 32.4647 18.5118 33.1218 18.5336C33.2487 18.5336 33.3336 18.5551 33.3759 18.5985C33.4181 18.6415 33.4608 18.7279 33.4608 18.8145C33.4608 18.9008 33.4183 18.9657 33.3759 19.0091C33.3123 19.0522 33.2276 19.0736 33.1004 19.0736H31.7228V19.7221H33.1004C33.8208 19.7221 34.2236 19.4197 34.2236 18.7714C34.2236 18.4689 34.139 18.2741 34.0118 18.123ZM31.299 19.0956H29.625V18.4903H31.2567V17.8855H29.625V17.3233H31.299V16.6966H28.9256V19.7222H31.299V19.0956ZM28.1625 16.848C27.9293 16.7183 27.6538 16.6965 27.2936 16.6965H25.6619V19.7221H26.3822V18.6199H27.1453C27.3994 18.6199 27.548 18.6417 27.654 18.7496C27.7812 18.9008 27.7812 19.1603 27.7812 19.3548V19.7221H28.4803V19.1385C28.4803 18.8576 28.4593 18.7279 28.3745 18.5767C28.3109 18.49 28.184 18.3821 28.0144 18.3172C28.2049 18.2527 28.5231 17.9932 28.5231 17.5176C28.5229 17.172 28.3957 16.9774 28.1625 16.848ZM24.1359 16.6965H21.8682L20.9568 17.6907L20.0879 16.6965H17.2269V19.7221H20.0457L20.957 18.7279L21.8259 19.7221H23.2035V18.7066H24.0936C24.7081 18.7066 25.323 18.5336 25.323 17.6907C25.3228 16.8695 24.6869 16.6965 24.1359 16.6965ZM27.5902 17.9502C27.4844 17.9932 27.3784 17.9932 27.2512 17.9932L26.3822 18.015V17.3232H27.2512C27.3784 17.3232 27.5056 17.3232 27.5902 17.388C27.6752 17.4314 27.7385 17.5177 27.7385 17.6475C27.7385 17.7772 27.6752 17.8853 27.5902 17.9502ZM24.1359 18.1013H23.2033V17.3232H24.1359C24.3903 17.3232 24.5597 17.4314 24.5597 17.6907C24.5597 17.9502 24.3901 18.1013 24.1359 18.1013ZM21.4019 18.2093L22.5039 17.0208V19.4629L21.4019 18.2093ZM19.6852 19.0956H17.9262V18.4903H19.4944V17.8855H17.9262V17.3233H19.7064L20.4906 18.2094L19.6852 19.0956ZM35.0289 14.5136H34.0118L32.6766 12.2443V14.5136H31.2357L30.9599 13.8435H29.4765L29.201 14.5136H28.3743C28.0353 14.5136 27.5902 14.4271 27.3361 14.1677C27.1029 13.9084 26.9757 13.5626 26.9757 13.0223C26.9757 12.5684 27.0393 12.1578 27.357 11.8336C27.5689 11.5958 27.9505 11.4879 28.4378 11.4879H29.1159V12.1363H28.4378C28.1837 12.1363 28.0351 12.1796 27.8869 12.3093C27.7597 12.439 27.6961 12.6767 27.6961 13.0008C27.6961 13.325 27.7597 13.5628 27.8869 13.7141C27.9927 13.8221 28.1837 13.8653 28.3742 13.8653H28.6922L29.7094 11.488H30.7691L31.9559 14.3408V11.4879H33.058L34.3084 13.5843V11.4879H35.0288V14.5136H35.0289ZM26.6154 11.4879H25.8951V14.5136H26.6154V11.4879ZM25.1106 11.6176C24.8774 11.4879 24.6233 11.4879 24.2631 11.4879H22.6311V14.5136H23.3304V13.4113H24.0933C24.3477 13.4113 24.5173 13.4329 24.6232 13.541C24.7504 13.6924 24.729 13.9518 24.729 14.1246V14.5136H25.4494V13.9084C25.4494 13.6491 25.4284 13.5194 25.3225 13.3681C25.2589 13.2816 25.1317 13.1735 24.9834 13.1088C25.1739 13.0223 25.4921 12.7846 25.4921 12.3091C25.4923 11.9634 25.3437 11.7688 25.1106 11.6176ZM22.1224 13.8869H20.4694V13.2817H22.1012V12.6551H20.4694V12.1147H22.1224V11.488H19.7488V14.5138H22.1224V13.8869ZM19.219 11.4879H18.0534L17.1845 13.541L16.2519 11.4879H15.1076V14.3407L13.8996 11.4879H12.84L11.5684 14.5136H12.3313L12.6068 13.8435H14.0902L14.3657 14.5136H15.8069V12.1363L16.8453 14.5136H17.4598L18.4983 12.1363V14.5136H19.2188V11.4879H19.219ZM30.7058 13.1953L30.2182 12.0066L29.7309 13.1953H30.7058ZM24.5597 12.7199C24.4539 12.7848 24.3479 12.7848 24.1995 12.7848H23.3304V12.1149H24.1993C24.3265 12.1149 24.4746 12.1149 24.5596 12.1581C24.6442 12.223 24.6868 12.3094 24.6868 12.439C24.6868 12.5686 24.6444 12.6765 24.5597 12.7199ZM12.861 13.1953L13.3485 12.0066L13.836 13.1953H12.861ZM36.8305 2H11.547V12.8927L12.416 10.8828H14.2597L14.5141 11.3799V10.8828H16.6758L17.1633 11.9634L17.6295 10.8828H24.5173C24.835 10.8828 25.1105 10.9477 25.3227 11.1205V10.8828H27.2088V11.1205C27.5265 10.9475 27.9291 10.8828 28.3955 10.8828H31.1294L31.3838 11.3799V10.8828H33.3971L33.6939 11.3799V10.8828H35.6647V15.1188H33.6727L33.2914 14.4705V15.1188H30.8117L30.5362 14.4273H29.9214L29.6459 15.1188H28.3533C27.8446 15.1188 27.463 14.9891 27.2089 14.8595V15.1188H24.1359V14.1462C24.1359 14.0165 24.1147 13.9949 24.0299 13.9949H23.924V15.1187H17.9898V14.5783L17.7779 15.1187H16.5275L16.3157 14.5999V15.1187H13.9208L13.6665 14.4271H13.0518L12.7764 15.1187H11.547V27.8917H36.8305V20.1327C36.5551 20.2624 36.1735 20.3273 35.792 20.3273H33.9482V20.0679C33.7363 20.241 33.3547 20.3273 32.9946 20.3273H27.1876V19.3548C27.1876 19.2251 27.1665 19.2251 27.0604 19.2251H26.9545V20.3273H25.047V19.1819C24.7293 19.3331 24.3689 19.3331 24.0511 19.3331H23.8391V20.3273H21.5079L20.957 19.6788L20.3425 20.3273H16.591V16.0914H20.4058L20.9568 16.7396L21.5503 16.0914H24.1147C24.4112 16.0914 24.8988 16.1345 25.1106 16.3506V16.0914H27.3994C27.6326 16.0914 28.0778 16.1345 28.3743 16.3506V16.0914H31.8288V16.3507C32.0197 16.1778 32.3801 16.0916 32.6978 16.0916H34.6263V16.3507C34.8384 16.1995 35.1349 16.0916 35.5166 16.0916H36.8305V2Z" fill="#0077A6"/>
</svg>
