<svg width="48" height="30" viewBox="0 0 48 30" fill="none" xmlns="http://www.w3.org/2000/svg">
<rect width="48" height="30" rx="3" fill="white"/>
<path d="M28.4004 21.4765H20.543V7.35614H28.4004V21.4765Z" fill="#FF5F00"/>
<path d="M21.0417 14.417C21.0417 11.5525 22.3832 9.00155 24.4716 7.35742C22.8905 6.11041 20.9352 5.43484 18.923 5.43726C13.9628 5.43726 9.9433 9.45798 9.9433 14.417C9.9433 19.376 13.9628 23.3967 18.9218 23.3967C20.9352 23.3991 22.8905 22.7236 24.4704 21.4765C22.3832 19.8324 21.0417 17.2815 21.0417 14.417Z" fill="#EB001B"/>
<path d="M39 14.417C39 19.376 34.9805 23.3967 30.0215 23.3967C28.0081 23.3991 26.0528 22.7236 24.4717 21.4765C26.5601 19.8324 27.9016 17.2815 27.9016 14.417C27.9016 11.5525 26.5601 9.00155 24.4717 7.35742C26.0528 6.11041 28.0081 5.43484 30.0215 5.43726C34.9805 5.43726 39 9.45798 39 14.417Z" fill="#F79E1B"/>
</svg>
