<svg width="48" height="30" viewBox="0 0 48 30" fill="none" xmlns="http://www.w3.org/2000/svg">
<rect width="48" height="30" rx="3" fill="white"/>
<path fill-rule="evenodd" clip-rule="evenodd" d="M17.7223 21.346H21.1359L23.2698 8.23429H19.8558L17.7223 21.346ZM11.5961 17.2526L14.8505 8.23429H18.5244L13.0933 21.3464H9.53657L6.57079 9.95497C4.64528 8.79861 3 8.4563 3 8.4563L3.00009 8.45599C3.00003 8.45598 3 8.45597 3 8.45597L3.06313 8.23396H8.44334C9.92378 8.23396 10.0627 9.41452 10.0627 9.41452L11.2113 15.311C11.2113 15.311 11.2113 15.3108 11.2112 15.3105L11.2113 15.3113V15.311L11.211 15.3106L11.5961 17.2526ZM44.8352 21.346H41.7007L41.3009 19.3984H36.9613L36.2496 21.346H32.6911L37.7823 9.21107C37.7823 9.21107 38.091 8.23394 39.3582 8.23394H42.1023L44.8352 21.346ZM39.738 11.8012L37.9444 16.7079H40.7471L39.738 11.8012ZM33.4452 8.57169L32.958 11.3874C31.4972 10.5824 28.1727 10.392 28.1723 11.8745C28.1723 12.4635 28.9245 12.8685 29.8312 13.3567C31.2061 14.0971 32.9363 15.0288 32.9363 17.0832C32.9363 20.3661 29.422 21.5722 27.0924 21.5722C24.7636 21.5722 23.2393 20.8318 23.2393 20.8318L23.7468 17.8878C25.1444 19.0098 29.3795 19.3286 29.3795 17.5494C29.3795 16.8017 28.5458 16.3608 27.5791 15.8495C26.2452 15.144 24.658 14.3046 24.658 12.3406C24.658 8.74039 28.6809 8 30.3749 8C31.942 8 33.4452 8.57169 33.4452 8.57169Z" fill="#2566AF"/>
</svg>
