<svg xmlns="http://www.w3.org/2000/svg" width="90" height="99" fill="none" viewBox="0 0 90 99">
    <path fill="#E5F7F6" fill-rule="evenodd" d="M14.437 24.4C23.215 12.511 34.116.941 48.877.063 63.81-.824 78.29 7.63 86.442 20.117c7.107 10.886 1.7 24.22-.261 37.08-2.09 13.696.43 30.281-11.178 37.909-12.155 7.987-27.872 2.083-41.311-3.42-13.733-5.623-28.564-12.62-32.639-26.86-4.103-14.338 4.502-28.4 13.384-40.427z" clip-rule="evenodd"/>
    <g clip-path="url(#clip0)">
        <path fill="#07A39D" stroke="#07A39D" stroke-miterlimit="10" stroke-width=".5" d="M44.798 84.605H22.113c-.448 0-.879-.178-1.196-.496-.318-.317-.496-.748-.496-1.196 0-.45.178-.88.496-1.197.317-.317.748-.496 1.196-.496h4.149l.615-5.495H8.915c-1.99.001-3.9-.787-5.309-2.191-1.41-1.405-2.204-3.31-2.21-5.3V32.23c.006-1.99.802-3.894 2.211-5.298 1.41-1.403 3.319-2.19 5.308-2.188h8.72c.044-1.689.745-3.293 1.955-4.473 1.21-1.179 2.832-1.839 4.522-1.839h50.991c.313-1.226.963-2.34 1.877-3.214.914-.874 2.055-1.475 3.294-1.733 1.238-.258 2.524-.164 3.712.273 1.187.437 2.228 1.198 3.004 2.196.777 1 1.257 2.196 1.387 3.454.13 1.259-.096 2.528-.652 3.665-.556 1.136-1.42 2.094-2.493 2.763-1.073.67-2.313 1.026-3.578 1.026-1.495.001-2.948-.492-4.133-1.403-1.185-.912-2.035-2.19-2.418-3.634H24.112c-.79-.003-1.55.3-2.121.844-.572.544-.912 1.288-.948 2.076h36.983c1.989-.002 3.897.785 5.307 2.188 1.41 1.404 2.205 3.309 2.212 5.298v5.675h9.558c.412-1.587 1.388-2.97 2.746-3.888 1.357-.919 3.003-1.311 4.629-1.104 1.626.208 3.12 1.001 4.204 2.231 1.083 1.23 1.68 2.814 1.68 4.453 0 1.64-.597 3.222-1.68 4.453-1.083 1.23-2.578 2.023-4.204 2.23-1.626.208-3.272-.184-4.63-1.103-1.357-.919-2.333-2.301-2.745-3.888h-9.558v12.326h9.558c.412-1.585 1.387-2.966 2.744-3.884 1.357-.918 3.001-1.31 4.626-1.102 1.625.208 3.118 1 4.2 2.23 1.083 1.229 1.68 2.81 1.68 4.449 0 1.638-.597 3.22-1.68 4.449-1.082 1.229-2.575 2.022-4.2 2.23-1.625.207-3.27-.185-4.626-1.103-1.357-.918-2.332-2.299-2.744-3.884h-9.558v11.233c-.007 1.99-.802 3.895-2.211 5.3-1.41 1.403-3.319 2.191-5.308 2.19H40.037l.612 5.495h4.148c.449 0 .88.179 1.197.496.317.317.495.748.495 1.197 0 .448-.178.879-.495 1.196-.318.318-.748.496-1.197.496h.001zm-14.502-8.881l-.607 5.494h7.539l-.61-5.495-6.322.001zM4.794 66.679v1.555c.004 1.09.44 2.133 1.212 2.902.773.769 1.819 1.2 2.909 1.198h49.11c1.09.001 2.135-.43 2.907-1.199.771-.769 1.207-1.812 1.21-2.901V66.68h-5.63c-.222 0-.442-.044-.647-.129-.205-.085-.392-.21-.55-.367-.156-.157-.28-.343-.366-.549-.085-.205-.129-.425-.129-.647 0-.223.044-.443.129-.648.085-.205.21-.392.367-.549.157-.157.344-.282.549-.367.205-.085.425-.129.648-.129h5.63v-6.294h-3.114c-.084.968-.526 1.87-1.242 2.528-.715.658-1.65 1.024-2.622 1.027H36.834c-1.026 0-2.01-.406-2.736-1.13-.726-.725-1.135-1.708-1.138-2.733v-2.776c.003-1.026.413-2.007 1.139-2.73.726-.724 1.71-1.13 2.735-1.13h18.33c.972.003 1.908.37 2.623 1.027.716.659 1.158 1.56 1.241 2.53h3.113V41.288h-3.1c-.004 1.025-.415 2.007-1.142 2.73-.726.723-1.71 1.129-2.735 1.13h-18.33c-1.027-.001-2.011-.409-2.737-1.134-.726-.726-1.135-1.71-1.137-2.736v-3.364c.003-1.026.412-2.009 1.138-2.733.726-.724 1.71-1.131 2.736-1.131h18.33c1.024 0 2.007.404 2.734 1.126.726.722 1.138 1.702 1.144 2.726h3.1V32.23c-.003-1.09-.439-2.133-1.21-2.902-.772-.769-1.817-1.2-2.906-1.2H21.035v5.927h5.208c1.197-.002 2.346.471 3.195 1.315.848.844 1.328 1.99 1.332 3.188v17.499c-.004 1.197-.483 2.343-1.332 3.188-.849.844-1.998 1.317-3.195 1.316H12.416c-1.197 0-2.344-.473-3.192-1.318-.848-.844-1.326-1.99-1.33-3.186V38.554c.004-1.197.483-2.342 1.33-3.186.848-.844 1.996-1.318 3.192-1.317h5.216v-5.926H8.915c-1.091-.001-2.137.43-2.91 1.2-.773.77-1.208 1.814-1.211 2.905v31.065h38.123c.223 0 .443.044.648.13.205.084.392.209.55.366.156.157.281.344.366.549.085.205.129.425.129.648 0 .222-.044.442-.129.647-.085.206-.21.392-.367.55-.157.156-.344.281-.549.366-.205.085-.425.129-.648.129H4.794v-.001zm76.855-14.716c-.661.003-1.307.202-1.856.572-.548.37-.975.894-1.226 1.506-.25.612-.315 1.285-.184 1.934.132.648.452 1.243.92 1.71.47.466 1.067.784 1.716.911.65.128 1.322.06 1.932-.194.611-.254 1.133-.683 1.5-1.234.367-.55.563-1.197.562-1.859-.002-.89-.358-1.742-.988-2.37-.63-.628-1.485-.98-2.375-.979v.003zm-44.816 1.481c-.126.002-.246.054-.335.143-.089.09-.139.21-.14.336v2.78c0 .126.05.247.138.337.09.09.21.14.337.142h18.331c.127 0 .249-.051.338-.14.09-.09.14-.212.14-.34v-2.785c-.001-.127-.052-.248-.141-.337-.09-.09-.21-.14-.337-.142l-18.331.006zM12.42 37.434c-.298 0-.585.116-.796.326-.212.21-.332.495-.333.793v17.504c.001.298.121.583.333.793.211.21.498.327.796.326h13.827c.297 0 .583-.117.794-.327.21-.21.329-.495.33-.792V38.554c-.001-.298-.12-.583-.331-.792-.211-.21-.497-.327-.794-.326l-13.826-.001zm69.234-1.185c-.661.003-1.307.203-1.856.572-.548.37-.975.894-1.226 1.507-.25.612-.315 1.285-.184 1.933.131.649.452 1.244.92 1.71.47.467 1.067.784 1.716.912.65.127 1.322.06 1.932-.194.611-.255 1.133-.684 1.5-1.234.367-.55.563-1.198.562-1.86-.003-.89-.36-1.743-.99-2.37-.632-.628-1.487-.98-2.378-.977l.004.001zm-44.816 1.186c-.127.002-.247.053-.335.142-.089.09-.139.21-.14.337v3.364c0 .127.05.248.138.338.09.09.21.14.337.142h18.326c.127 0 .249-.051.338-.141.09-.09.14-.212.14-.338v-3.364c-.001-.127-.052-.248-.141-.337-.09-.09-.21-.14-.337-.142l-18.327-.001zM81.65 16.78c-.662.002-1.308.201-1.857.571-.55.37-.977.894-1.228 1.506-.251.613-.316 1.286-.185 1.935.13.649.451 1.244.92 1.712.47.467 1.066.784 1.716.913.65.128 1.322.06 1.933-.193.612-.254 1.134-.684 1.502-1.234.367-.551.563-1.198.563-1.86-.002-.89-.357-1.743-.988-2.372-.631-.628-1.485-.98-2.376-.978v0z"/>
    </g>
    <defs>
        <clipPath id="clip0">
            <path fill="#fff" d="M0 0H87.807V72H0z" transform="translate(1 13)"/>
        </clipPath>
    </defs>
</svg>
