<svg xmlns="http://www.w3.org/2000/svg" width="90" height="99" fill="none" viewBox="0 0 90 99">
    <path fill="#E5F7F6" fill-rule="evenodd" d="M14.437 24.4C23.215 12.511 34.116.941 48.877.063 63.81-.824 78.29 7.63 86.442 20.117c7.107 10.886 1.7 24.22-.261 37.08-2.09 13.696.43 30.281-11.178 37.909-12.155 7.987-27.872 2.083-41.311-3.42-13.733-5.623-28.564-12.62-32.639-26.86-4.103-14.338 4.502-28.4 13.384-40.427z" clip-rule="evenodd"/>
    <g clip-path="url(#clip0)">
        <path fill="#07A39D" stroke="#E5F7F6" stroke-width=".5" d="M12.759 49.328l-.002-.002c-.27-.302-.441-.678-.493-1.078-.051-.401.02-.808.206-1.167v-.002l9.223-18.28h0l.002-.004c.166-.341.427-.629.752-.828.326-.199.701-.301 1.083-.295v0h46.14v0h.006c.382-.009.76.093 1.085.293.325.2.585.49.748.834h0l.003.005 9.222 18.28.001.002c.185.359.257.765.206 1.165-.051.4-.222.775-.492 1.077v.001l-32.29 36.713h0c-.194.22-.432.397-.7.518-.268.12-.558.183-.852.183-.294 0-.585-.063-.853-.183-.267-.121-.506-.298-.699-.518l-.075-.085h0l-32.221-36.63zm37.609 27.264l.417.264 23.234-26.41.365-.416H61.811l-.065.151-11.378 26.41zm-7.943.264l.418-.264L31.475 50.18l-.065-.15H18.828l.365.414 23.232 26.412zm3.95-2.444l.23.533.23-.533 10.348-24.034.15-.349H35.876l.15.35 10.349 24.033zm17.581-28.817l-.183.363h11.8l-.183-.363-5.492-10.885-.223-.443-.224.443-5.495 10.885zm-26.777-.038l-.303.4h19.461l-.304-.4-9.228-12.187-.2-.263-.199.263-9.227 12.187zm-19.36.038l-.184.363H29.44l-.183-.363-5.494-10.885-.223-.442-.223.442-5.498 10.885zm42.035-1.785l.241.32.181-.358 5.89-11.661.184-.363H50.715l.304.4 8.834 11.662zm-26.918-.038l.181.358.242-.32 8.832-11.667.304-.4h-15.63l.183.362 5.888 11.667zm23.632-24.525h0l3.262-3.232c.387-.382.91-.597 1.456-.597.546 0 1.07.215 1.457.597.19.189.341.413.444.66.103.246.156.51.156.778 0 .267-.053.532-.156.779-.103.246-.254.47-.444.66 0 0 0 0 0 0l-3.265 3.231h0c-.386.383-.91.599-1.455.599-.546 0-1.07-.216-1.455-.599l-.176.178.175-.178c-.19-.189-.341-.413-.444-.66-.103-.246-.156-.51-.156-.778 0-.267.053-.532.156-.779.103-.246.254-.47.445-.66zm-21.393 3.456c-.527.003-1.034-.196-1.416-.554l-.027-.026-3.262-3.232h0l-.003-.003c-.198-.188-.355-.414-.464-.663-.108-.25-.165-.518-.168-.79-.002-.271.05-.541.153-.792.104-.252.257-.48.451-.672.194-.192.424-.344.678-.446.253-.102.525-.153.799-.149.274.004.544.062.794.171.251.109.477.267.666.464h0l.004.005 3.261 3.23c.374.385.58.9.576 1.435-.005.536-.222 1.048-.604 1.427-.382.378-.898.592-1.438.595zm9.375-6.706v-4.714c.017-.53.24-1.032.623-1.4.384-.371.898-.578 1.433-.578s1.048.207 1.432.577c.383.37.606.872.623 1.401v4.714c-.017.53-.24 1.032-.623 1.401-.383.37-.897.578-1.432.578-.535 0-1.05-.208-1.433-.578-.383-.369-.606-.871-.623-1.4z"/>
    </g>
    <defs>
        <clipPath id="clip0">
            <path fill="#fff" d="M0 0H69.211V78H0z" transform="translate(12 9)"/>
        </clipPath>
    </defs>
</svg>
