<svg xmlns="http://www.w3.org/2000/svg" width="90" height="99" fill="none" viewBox="0 0 90 99">
    <path fill="#E5F7F6" fill-rule="evenodd" d="M14.437 24.4C23.215 12.511 34.116.941 48.877.063 63.81-.824 78.29 7.63 86.442 20.117c7.107 10.886 1.7 24.22-.261 37.08-2.09 13.696.43 30.281-11.178 37.909-12.155 7.987-27.872 2.083-41.311-3.42-13.733-5.623-28.564-12.62-32.639-26.86-4.103-14.338 4.502-28.4 13.384-40.427z" clip-rule="evenodd"/>
    <path fill="#07A39D" d="M45.908 76.25h-31.98c-1.304.001-2.555-.515-3.48-1.435-.923-.92-1.444-2.17-1.448-3.475V17.91c.004-1.305.525-2.554 1.449-3.475.924-.92 2.175-1.437 3.48-1.435h40.828c1.304-.001 2.555.515 3.479 1.436.924.92 1.444 2.17 1.448 3.474v29.147c.709-.08 1.421-.119 2.134-.12 3.275.014 6.49.875 9.332 2.502 2.842 1.627 5.213 3.964 6.882 6.781 1.67 2.818 2.58 6.02 2.64 9.294.062 3.275-.726 6.51-2.288 9.388-1.562 2.878-3.844 5.302-6.623 7.034-2.778 1.733-5.959 2.715-9.23 2.851-3.272.136-6.523-.58-9.436-2.076-2.912-1.496-5.387-3.723-7.182-6.462h-.005zm1.106-10.378c-.011 2.926.846 5.79 2.464 8.23 1.617 2.438 3.922 4.342 6.623 5.47 2.7 1.127 5.674 1.428 8.545.864 2.872-.565 5.511-1.968 7.584-4.034 2.073-2.065 3.487-4.7 4.062-7.57.575-2.869.285-5.844-.832-8.55-1.117-2.704-3.012-5.017-5.444-6.644-2.433-1.627-5.293-2.495-8.22-2.495-3.911-.004-7.664 1.545-10.436 4.306-2.771 2.762-4.334 6.51-4.346 10.422zM13.222 17.91v53.43c0 .187.075.365.207.497s.311.206.498.205h29.9c-.94-2.698-1.249-5.577-.904-8.414H28.007c-.558 0-1.094-.222-1.488-.617-.395-.394-.617-.93-.617-1.488 0-.558.222-1.093.617-1.488.394-.395.93-.617 1.488-.617h15.92c.544-1.487 1.273-2.9 2.17-4.206h-18.09c-.558 0-1.093-.222-1.487-.616-.395-.395-.616-.93-.616-1.487 0-.558.221-1.093.616-1.488.394-.394.93-.616 1.487-.616 5.393 0 9.431 0 12.456-.007H44.89c4.643 0 4.688.02 4.91.116l.073.03c1.673-1.349 3.563-2.404 5.59-3.121V17.91c0-.187-.074-.365-.206-.497-.132-.131-.31-.205-.497-.205H13.93c-.093 0-.184.017-.27.052-.086.035-.164.087-.23.152-.065.065-.117.143-.153.228-.035.086-.054.177-.054.27zm42.237 49.927c-.558 0-1.093-.222-1.487-.616-.394-.395-.616-.93-.616-1.488 0-.558.222-1.093.616-1.487.395-.394.93-.616 1.487-.616h4.222v-6.313c.024-.544.256-1.058.65-1.435.393-.377.916-.587 1.46-.587.546 0 1.069.21 1.462.587.394.377.626.89.65 1.435v8.413c-.002.56-.225 1.095-.621 1.49s-.933.616-1.492.615l-6.33.002zm-38.015-6.313c-.002-.418.12-.827.352-1.176.23-.348.56-.62.946-.781.385-.161.81-.204 1.22-.124.41.08.787.281 1.084.576.296.295.498.671.58 1.081.082.41.041.835-.118 1.222-.16.386-.43.716-.778.949-.347.233-.756.357-1.174.357-.559.001-1.095-.22-1.492-.615-.396-.394-.62-.93-.62-1.49zm0-8.415c-.002-.418.12-.827.35-1.176.232-.348.56-.62.946-.782.386-.161.81-.205 1.221-.124.41.08.788.28 1.084.575.296.295.498.671.58 1.081.083.41.042.835-.117 1.222-.16.386-.43.717-.777.95-.348.232-.757.357-1.175.357-.276 0-.55-.053-.806-.158-.256-.106-.489-.26-.685-.455-.196-.195-.352-.427-.459-.683-.106-.255-.162-.529-.162-.806zm10.563-6.31c-.276 0-.55-.055-.805-.16-.255-.106-.487-.261-.682-.457-.195-.195-.35-.427-.456-.682-.106-.255-.16-.529-.16-.805s.054-.55.16-.805c.106-.255.26-.487.456-.682.195-.195.427-.35.682-.456.255-.106.529-.16.805-.16h21.12c.276 0 .55.054.804.16.256.106.487.26.683.456.195.195.35.427.456.682.105.255.16.529.16.805s-.055.55-.16.805c-.106.255-.261.487-.456.682-.196.196-.427.35-.683.456-.255.106-.528.16-.804.16h-21.12zm-10.563-2.103c-.002-.418.12-.827.35-1.176.232-.349.56-.62.946-.782.386-.161.81-.205 1.221-.124.41.08.788.28 1.084.575.296.295.498.671.58 1.081.083.41.042.835-.117 1.222-.16.386-.43.717-.777.95-.348.232-.757.356-1.175.356-.276.001-.55-.053-.807-.158-.256-.105-.488-.26-.684-.455-.197-.195-.353-.427-.46-.683-.106-.255-.16-.529-.161-.806zm10.559-6.312c-.558 0-1.093-.221-1.487-.616-.394-.394-.616-.93-.616-1.487 0-.558.222-1.093.616-1.487.394-.395.93-.616 1.487-.616h21.123c.558 0 1.093.221 1.488.616.394.394.616.93.616 1.487 0 .558-.222 1.093-.616 1.487-.395.395-.93.616-1.487.616H28.003zm-10.56-2.104c-.001-.418.121-.827.353-1.176.23-.348.56-.62.946-.781.385-.161.81-.204 1.22-.123.41.08.787.28 1.084.575.296.295.498.672.58 1.081.082.41.041.835-.118 1.222-.16.386-.43.717-.778.95-.347.232-.756.356-1.174.356-.277.001-.55-.053-.807-.158-.256-.106-.489-.26-.685-.456-.196-.195-.352-.428-.459-.683-.106-.256-.161-.53-.161-.807zm10.56-6.31c-.558 0-1.093-.22-1.488-.616-.395-.394-.617-.93-.617-1.488 0-.558.222-1.093.617-1.488s.93-.617 1.488-.617h21.123c.559 0 1.094.222 1.489.617.394.395.616.93.616 1.488 0 .558-.222 1.094-.616 1.488-.395.395-.93.617-1.489.617H28.003zm-10.56-2.104c-.001-.418.121-.828.353-1.176.23-.348.56-.62.946-.781.385-.161.81-.204 1.22-.124.41.08.787.281 1.084.576.296.295.498.671.58 1.081.082.41.041.835-.118 1.222-.16.386-.43.716-.778.949-.347.233-.756.357-1.174.357-.559.001-1.095-.22-1.492-.615-.396-.394-.62-.93-.62-1.49z"/>
</svg>
